<svg xmlns="http://www.w3.org/2000/svg" viewBox="0 0 500 500"><g id="freepik--Character--inject-3"><path d="M60.32,168.24s-31.1,9-31.81,11.76C27.39,184.32,41,224.08,46.7,231.44c1.94,2.48,10.6,6.17,11.82,6.31s39.55-8.36,40.37-11.29S83,171.25,81.63,170.28,60.32,168.24,60.32,168.24Z" style="fill:#263238;stroke:#263238;stroke-linecap:round;stroke-linejoin:round"></path><path d="M28.74,180.54l8.76,3.62,44.13-13.88-21.31-2S27.08,177.73,28.74,180.54Z" style="fill:#fff;stroke:#263238;stroke-linecap:round;stroke-linejoin:round"></path><polygon points="42.67 181.18 34.91 176.71 51.02 171.34 54.31 177.3 42.67 181.18" style="fill:#263238"></polygon><path d="M37.5,184.16l21,53.59-12.84-6s-16.35-38.64-16.94-51.19Z" style="fill:#fff;stroke:#263238;stroke-linecap:round;stroke-linejoin:round"></path><path d="M99.61,178.75s.57,1.14,9.32,2.66a113.46,113.46,0,0,0,17.13,1.52s-4,4-2.86,9.32a70.61,70.61,0,0,0,2.09,8s-4.37,1.14-11.6,0-9.32-2.1-9.32-2.1S98.66,186.36,99.61,178.75Z" style="fill:#fff;stroke:#263238;stroke-linecap:round;stroke-linejoin:round"></path><ellipse cx="124.03" cy="191.71" rx="9.04" ry="9.28" style="fill:#263238;stroke:#263238;stroke-linecap:round;stroke-linejoin:round"></ellipse><ellipse cx="127.1" cy="191.49" rx="9.04" ry="10.27" style="fill:#fff;stroke:#263238;stroke-linecap:round;stroke-linejoin:round"></ellipse><path d="M142,180.65s-9.52-2.09-14.94.57-5.61,10.65-3.33,15.6,7.42,4,9.71,2.85,11-4.94,13.88-6.84,1.91-9.71.19-11.61S142,180.65,142,180.65Z" style="fill:#fff;stroke:#263238;stroke-linecap:round;stroke-linejoin:round"></path><ellipse cx="144.03" cy="186.83" rx="8.85" ry="8.47" style="fill:#263238;stroke:#263238;stroke-linecap:round;stroke-linejoin:round"></ellipse><path d="M143.18,176.08s-3.43,5.9-3.43,9.33,1.15,7.42,4.38,8,6.66-4.38,6.66-4.38a10.2,10.2,0,0,0,3.8-1.33c1.91-1.14,3.43-4.76,3.43-4.76s1.9-.19,4-.19,4.38.19,4.38-1.33-5.14-2.47-5.14-2.47,4.19-.19,5.33-1.33,1.33-3.05-.38-3.05-8.75.95-8.75.95,5.7-3,5.32-6.85-5.51.57-5.51.57,1.52-3.8-2.1-2.85S147,169.62,143.18,176.08Z" style="fill:#fff;stroke:#263238;stroke-linecap:round;stroke-linejoin:round"></path><path d="M147.55,191.87c5.71-2.28,3.81-6.46,3.81-6.46s7.61-5.52,3.8-8-11,5.51-11,5.51" style="fill:#fff;stroke:#263238;stroke-linecap:round;stroke-linejoin:round"></path><path d="M157.26,169.23a20.82,20.82,0,0,1-2.86,2.67c-1.9,1.52-4.37,2.85-4.37,4.75" style="fill:#fff;stroke:#263238;stroke-linecap:round;stroke-linejoin:round"></path><path d="M106.05,299.77s-3,3.94-1.76,7.47,4.57,6.44,6.64,9.24,3.43,7.9,10.18,9.35,11.63-2.29,12.15-4.78-1.14-6.54-1.14-6.95-5.61-12.26-5.61-12.26Z" style="fill:#fff;stroke:#263238;stroke-linecap:round;stroke-linejoin:round"></path><path d="M127.09,299.36l4.46,13c2.23,6.49.61,9.93-6.08,11.15s-9.53-3.85-13.38-8.51-7.1-9.13-6.49-13.59,3.25-5.06,3.25-5.06,1.82,3.24,9.12,3.64S127.09,299.36,127.09,299.36Z" style="fill:#fff;stroke:#263238;stroke-linecap:round;stroke-linejoin:round"></path><path d="M129,299.09c-1.12,4.74-7.46,7.3-14.16,5.7s-11.22-6.72-10.1-11.46,7.47-7.29,14.17-5.7S130.11,294.36,129,299.09Z" style="fill:#fff;stroke:#263238;stroke-linecap:round;stroke-linejoin:round"></path><path d="M112.29,272.6s-7,17.31-6.39,19.95,7.2,10.86,15.51,8.83,7.1-6.69,7.1-6.69l4.05-16.82S115.94,279.08,112.29,272.6Z" style="fill:#fff;stroke:#263238;stroke-linecap:round;stroke-linejoin:round"></path><path d="M112.29,272.6s-7,17.31-6.39,19.95a3.5,3.5,0,0,0,.24.68c16.69-1.07,24.06-10.34,25.86-13l.56-2.33S115.94,279.08,112.29,272.6Z" style="fill:#263238;stroke:#263238;stroke-linecap:round;stroke-linejoin:round"></path><path d="M134.66,278c-1.13,4.74-7.47,7.29-14.17,5.7S109.27,277,110.4,272.25s7.47-7.29,14.17-5.7S135.79,273.27,134.66,278Z" style="fill:#fff;stroke:#263238;stroke-linecap:round;stroke-linejoin:round"></path><path d="M113.1,223.94s16,22.71,20.07,34.06c1.46,4.07,2.71,8.88,1.51,13.18-2.31,8.32-13.16,10-18.94,4.25-7.1-7.09-20.88-26.35-20.88-26.35s0-3.45,4.86-6.08,11-10.75,11.36-12.57S113.1,223.94,113.1,223.94Z" style="fill:#fff;stroke:#263238;stroke-linecap:round;stroke-linejoin:round"></path><path d="M115.74,275.43a11.31,11.31,0,0,0,3.47,2.36c-.19-.21-.39-.42-.61-.64-6.54-6.55-13.47-35-13.47-35a5.39,5.39,0,0,0-1.9-1.7A19.56,19.56,0,0,1,99.72,243c-4.86,2.63-4.86,6.08-4.86,6.08S108.64,268.34,115.74,275.43Z" style="fill:#263238;stroke:#263238;stroke-linecap:round;stroke-linejoin:round"></path><path d="M111.08,219.89s3.24.2,3.24,6.28-6.89,15.41-10.34,19.67-6.08,5.88-17.23,3.44S66.27,242,63.43,235.09s1-10.74,4.46-11.15,21.29-2.84,28.79-5.68a99.1,99.1,0,0,0,11.56-5.06Z" style="fill:#fff;stroke:#263238;stroke-linecap:round;stroke-linejoin:round"></path><path d="M63.64,225a5.82,5.82,0,0,0,2.23,6.29c3.44,2.64,8.31,5.47,25.34,2.64s21.89-11.56,20.88-14.8a15.68,15.68,0,0,0-3.85-5.88,48.59,48.59,0,0,1-23.11,11.15C71.14,226.78,63.64,225,63.64,225Z" style="fill:#fff;stroke:#263238;stroke-linecap:round;stroke-linejoin:round"></path><path d="M106.78,186.67c1.55,6.1-.38,11.86-4.3,12.85s-8.35-3.15-9.9-9.26.38-11.86,4.3-12.85S105.24,180.56,106.78,186.67Z" style="fill:#fff;stroke:#263238;stroke-linecap:round;stroke-linejoin:round"></path><path d="M57.39,183.77S54.1,186,54.1,193.1s4.11,28.25,9.32,33.19,22.22,5.21,35.39-.27,11.24-10.15,10.15-18.11-5.76-25.23-10.7-29.62-10.43-2.47-21.4,0A189.78,189.78,0,0,0,57.39,183.77Z" style="fill:#fff;stroke:#263238;stroke-linecap:round;stroke-linejoin:round"></path><path d="M65.86,197.84a44.05,44.05,0,0,1-1.16,14.24,99.66,99.66,0,0,0-2.31,12.32l-5.77-12.32S60.85,197.07,65.86,197.84Z" style="fill:#263238;stroke:#263238;stroke-linecap:round;stroke-linejoin:round"></path><ellipse cx="76.04" cy="181.58" rx="20.02" ry="11.52" style="fill:#fff;stroke:#263238;stroke-linecap:round;stroke-linejoin:round"></ellipse><path d="M65.86,185.13s-3.08,2.31-1.16,5c0,0-7.7-3.08-9.24-6.16s3.08-6.93,3.08-6.93L67,183.59Z" style="fill:#263238;stroke:#263238;stroke-linecap:round;stroke-linejoin:round"></path><circle cx="75.63" cy="161.69" r="24.82" style="fill:#fff;stroke:#263238;stroke-linecap:round;stroke-linejoin:round"></circle><path d="M63,140.35a24.82,24.82,0,0,0,4.29,44.71A24.82,24.82,0,0,0,63,140.35Z" style="fill:#263238;stroke:#263238;stroke-linecap:round;stroke-linejoin:round"></path><path d="M89.43,141.06a21.26,21.26,0,1,0,1.42,40.24,24.82,24.82,0,0,0-1.42-40.24Z" style="fill:#fff;stroke:#263238;stroke-linecap:round;stroke-linejoin:round"></path><path d="M78.64,304a7,7,0,0,0,.31,5.3c1.35,2.7,4.26,5.81,9.35,9.14s11.83,5,15.26,4.36,6.44-2.39,7.48-5,.72-4.46.2-4.77-1.66,1-9.55-3.85S91.83,301,87,300.91,78.43,302.36,78.64,304Z" style="fill:#fff;stroke:#263238;stroke-linecap:round;stroke-linejoin:round"></path><path d="M102,302s3.85,5.07,6.29,6.89,3.85,2.84,2.63,5.68-3.85,6.49-10.74,5.68a27.56,27.56,0,0,1-17.84-9.33c-4.46-5.27-4.46-7.7-3-8.51s7.7.81,11.15.81,7.09-2,8.51-2.64S101.34,300,102,302Z" style="fill:#fff;stroke:#263238;stroke-linecap:round;stroke-linejoin:round"></path><path d="M76.41,297.33s-1,5.27,2.23,7.5,15.81,2.43,21.29-.61,2.43-6.49.2-8.11-12.37,4.46-15.41,3S81.48,301.38,76.41,297.33Z" style="fill:#fff;stroke:#263238;stroke-linecap:round;stroke-linejoin:round"></path><path d="M78.64,274S75.19,295.3,75.8,299s5.47,5.88,16,4.46,12.55-5.43,10.54-8.72c-1.08-1.75-.7-14.46-.7-14.46S88.37,284.15,78.64,274Z" style="fill:#fff;stroke:#263238;stroke-linecap:round;stroke-linejoin:round"></path><path d="M103.2,285.23l-1.72-2.1c-4.93-.2-15.58-1.55-22.84-9.11,0,0-3.45,21.28-2.84,24.93a4.82,4.82,0,0,0,2.7,3.46,4.74,4.74,0,0,0,.75,0C90.33,301.08,103.2,285.23,103.2,285.23Z" style="fill:#263238;stroke:#263238;stroke-linecap:round;stroke-linejoin:round"></path><path d="M78.64,270.77s-3.24,3.45,1.22,8.31,8.51,8.72,18.44,8.72,9.73-6.89,7.71-11.15S89,261.45,78.64,270.77Z" style="fill:#fff;stroke:#263238;stroke-linecap:round;stroke-linejoin:round"></path><path d="M107.47,271.13c-.83-4.66-2.94-9-4.4-13.44s-3.19-9.27-6.59-12.67c-4.66-4.66-23.31-7.09-27.17-3.24s0,18.65,8.11,29.8c3.77,5.19,8.94,10.53,15.41,12.29a14.52,14.52,0,0,0,10.52-1c4.35-2.4,4.93-7.19,4.13-11.72Z" style="fill:#fff;stroke:#263238;stroke-linecap:round;stroke-linejoin:round"></path><path d="M88.19,281.77c-9.76-11.72-11.28-34.08-11.51-41.89-3.35.08-6.13.66-7.37,1.9-3.85,3.85,0,18.65,8.11,29.8,2.87,3.94,6.53,8,11,10.44Z" style="fill:#263238;stroke:#263238;stroke-linecap:round;stroke-linejoin:round"></path><path d="M94.87,195.41,80.09,200.3A2.13,2.13,0,0,0,78.73,203L82,212.74a2.13,2.13,0,0,0,2.68,1.35l14.67-4.76a2.14,2.14,0,0,0,1.37-2.67l-3.14-9.87A2.12,2.12,0,0,0,94.87,195.41Z" style="fill:#fff;stroke:#263238;stroke-linecap:round;stroke-linejoin:round"></path><path d="M87,206.36a2.11,2.11,0,1,1-2.11-2.11A2.1,2.1,0,0,1,87,206.36Z" style="fill:#263238"></path><circle cx="90.43" cy="204.52" r="2.11" style="fill:#263238"></circle><path d="M98.06,202.67a2.11,2.11,0,1,1-2.1-2.1A2.1,2.1,0,0,1,98.06,202.67Z" style="fill:#263238"></path><path d="M66.26,195.61c1.31,6.14-1.29,11.91-5.81,12.87s-9.25-3.23-10.56-9.38,1.29-11.91,5.81-12.88S64.94,189.46,66.26,195.61Z" style="fill:#fff;stroke:#263238;stroke-linecap:round;stroke-linejoin:round"></path><path d="M54.64,218.34s8-10.15,7.41-15.64-4.11-12.89-11.25-10.42-16.18,22.49-15.91,26.61,2.47,4.93,2.47,4.93S42,220,47.51,219.71,54.64,218.34,54.64,218.34Z" style="fill:#fff;stroke:#263238;stroke-linecap:round;stroke-linejoin:round"></path><ellipse cx="45.04" cy="224.23" rx="11.52" ry="10.56" style="fill:#fff;stroke:#263238;stroke-linecap:round;stroke-linejoin:round"></ellipse><path d="M38.79,224.23c0-5,3.8-9.17,8.89-10.27a12.71,12.71,0,0,0-2.64-.29c-6.36,0-11.52,4.73-11.52,10.56S38.68,234.79,45,234.79a12.71,12.71,0,0,0,2.64-.28C42.59,233.41,38.79,229.23,38.79,224.23Z" style="fill:#263238;stroke:#263238;stroke-linecap:round;stroke-linejoin:round"></path><path d="M64.52,229.31s-10.7-9.33-18.38-9.6-12.34,8.5-8.78,14,20,12.07,20,12.07S56,234.52,64.52,229.31Z" style="fill:#fff;stroke:#263238;stroke-linecap:round;stroke-linejoin:round"></path><path d="M71.28,241.42c-1.75,5.75-6.87,9.27-11.43,7.89s-6.85-7.17-5.11-12.92,6.87-9.27,11.43-7.88S73,235.68,71.28,241.42Z" style="fill:#263238;stroke:#263238;stroke-linecap:round;stroke-linejoin:round"></path><path d="M79.59,233.56s.75,2.83,3,3.13,5.07.15,5.07,2.39a4.19,4.19,0,0,1-3.87,4c-1.94.15-3.28.15-6.71-2.68s-5.37-3.88-5.67-5.07.89-5.07,3-4.47A24.83,24.83,0,0,1,79.59,233.56Z" style="fill:#fff;stroke:#263238;stroke-linecap:round;stroke-linejoin:round"></path><path d="M62.22,230.63s8.11-4.66,11-4.66,8.71,8.31,8.71,10.54-1.21,5.88-2,6.08a2.75,2.75,0,0,1-2.84-3,9.91,9.91,0,0,0-1.42-4.66l-1.22-.81s2.83,7.53,3.25,9.73c.29,1.55.6,2.43-1.42,3.45A12.9,12.9,0,0,1,73,248.47a22.45,22.45,0,0,1-3.65,1.22,22.31,22.31,0,0,1-4,.4,14,14,0,0,1-3.65.81c-1.42,0-3-2.23-4.26-6.28S58.26,232.75,62.22,230.63Z" style="fill:#fff;stroke:#263238;stroke-linecap:round;stroke-linejoin:round"></path><path d="M73,248.47s-2.17-13.42-5.75-16.55" style="fill:none;stroke:#263238;stroke-linecap:round;stroke-linejoin:round"></path><path d="M65.26,250.09s-.88-8.48-3.12-13.4" style="fill:none;stroke:#263238;stroke-linecap:round;stroke-linejoin:round"></path><path d="M74.38,234.08a38.26,38.26,0,0,0-2.39-4.4" style="fill:none;stroke:#263238;stroke-linecap:round;stroke-linejoin:round"></path><path d="M155.94,171.33c2.94-3.13,5.08-3.36,6.81-2.79-.49-3.56-5.49.69-5.49.69s1.52-3.8-2.1-2.85-8.18,3.24-12,9.7c0,0-.62,1.07-1.33,2.56a8.73,8.73,0,0,0-3.19,1.48c-3.27-.37-8.2-.55-11.56,1.1a8.21,8.21,0,0,0-4.44,1.33,9.73,9.73,0,0,0-1.07.24,111.4,111.4,0,0,1-12.66-1.38c-2.3-.4-4-.77-5.33-1.11-1.91-2.23-4.29-3.39-6.53-2.92a9.73,9.73,0,0,0-1.53-.86c.31-.41.6-.84.88-1.27l.09-.14c.21-.33.41-.66.61-1l.12-.21c.18-.33.36-.66.53-1a2.12,2.12,0,0,1,.11-.21c.18-.37.35-.74.51-1.12a.47.47,0,0,0,0-.1,25.24,25.24,0,0,0,.94-2.56l.09-.31c.09-.33.18-.65.26-1,0-.15.07-.29.1-.44s.13-.58.19-.88.06-.33.08-.49.09-.58.13-.87,0-.33.07-.5.06-.62.08-.94l0-.43c0-.47,0-.93,0-1.4h0c0-.49,0-1,0-1.46,0-.15,0-.3,0-.45,0-.34-.06-.67-.09-1,0-.16,0-.33-.07-.49,0-.34-.1-.67-.16-1,0-.13,0-.27-.07-.41-.09-.47-.2-.93-.31-1.39,0,0,0,0,0-.05-.11-.44-.24-.87-.38-1.3,0-.13-.09-.26-.13-.39-.11-.32-.22-.64-.34-.95l-.17-.42c-.13-.32-.27-.64-.41-1l-.15-.33q-.3-.63-.63-1.26l0,0c-.21-.4-.45-.79-.68-1.17a3.28,3.28,0,0,1-.2-.31l-.58-.87-.23-.31c-.22-.31-.44-.6-.68-.89l-.16-.22A26.46,26.46,0,0,0,93,144l-.22-.22c-.27-.25-.54-.5-.82-.74l-.26-.22c-.3-.26-.61-.51-.92-.75l-.16-.13a24.78,24.78,0,0,0-10.08-4.53c20,16.45,14.87,33.62,13.32,39.89,10.07,11.39,15.89,37.61,13.94,43.1,1.45-1.44,3.95,1.78,2.09,4.74,3.73-.54,4.31,2.59,2.9,8,3.07,1.44,16.3,26.94,18.12,32s-3.73,23.32-5.65,30.76a13.46,13.46,0,0,0,2.66,12.49c.36.45,4,9.65,2.87,15.83a5.75,5.75,0,0,0,2.48-3.11c.52-2.49-1.14-6.54-1.14-6.95a2.46,2.46,0,0,0-.16-.45c-.12-.42-.25-.86-.41-1.32l-3.72-10.81a6.48,6.48,0,0,0,1.15-2.43,6.79,6.79,0,0,0-.46-4.36v0l3-12.41a7.11,7.11,0,0,0,3.16-4.27,7,7,0,0,0-.74-4.91,10.52,10.52,0,0,0,.76-1.92c1.2-4.3-.05-9.11-1.51-13.18-3.38-9.47-15.08-26.83-18.87-32.33-.1-3.31-1.21-4.73-2.1-5.33a3.33,3.33,0,0,0-.11-1.26,13.79,13.79,0,0,0-2.35-4.22,50.33,50.33,0,0,0-.78-7,89.65,89.65,0,0,0-1.83-8.93l.12,0c-1.77-6.54-4-12.67-5.24-16.33,4.3,2.61,17.15,3.9,25.09,2.38s9.35,1.56,11.89,1.46,6.19-7.54,8.4-12.66S156.92,167.79,155.94,171.33Z" style="fill:#718AC6;opacity:0.4"></path></g></svg>