<svg xmlns="http://www.w3.org/2000/svg" xmlns:xlink="http://www.w3.org/1999/xlink" viewBox="0 0 750.5 500"><defs><style>.cls-1{isolation:isolate;}.cls-2{fill:url(#New_Gradient_Swatch_copy_4);}.cls-3{fill:#eae4fe;}.cls-4,.cls-6,.cls-7{fill:#e1cee8;}.cls-5{fill:#f6f0fd;}.cls-6{opacity:0.3;}.cls-29,.cls-6,.cls-7{mix-blend-mode:multiply;}.cls-7{opacity:0.4;}.cls-8{fill:#a0a0be;}.cls-9{fill:#e6e1e6;}.cls-10{fill:#8c87b4;}.cls-11,.cls-29{fill:#646496;}.cls-12{fill:url(#New_Gradient_Swatch_copy_2);}.cls-13{fill:url(#New_Gradient_Swatch_copy_3);}.cls-14{fill:url(#New_Gradient_Swatch_copy_3-2);}.cls-15{fill:url(#New_Gradient_Swatch_copy_3-3);}.cls-16{fill:url(#New_Gradient_Swatch_copy_3-4);}.cls-17{fill:url(#New_Gradient_Swatch_copy_3-5);}.cls-18{fill:url(#New_Gradient_Swatch_copy_3-8);}.cls-19,.cls-22{fill:#00a0f9;}.cls-20{fill:#8595c9;}.cls-21,.cls-23{fill:#c86421;}.cls-22,.cls-25,.cls-29{opacity:0.5;}.cls-22,.cls-23{mix-blend-mode:color-burn;}.cls-24{fill:url(#New_Gradient_Swatch);}.cls-25{mix-blend-mode:soft-light;}.cls-26{fill:#d5b68d;}.cls-27{fill:#c99343;}.cls-28{fill:#c9dd8c;}</style><linearGradient id="New_Gradient_Swatch_copy_4" x1="375" y1="500.64" x2="375" y2="4.14" gradientUnits="userSpaceOnUse"><stop offset="0.41" stop-color="#d1e9ff"/><stop offset="0.99" stop-color="#60abff"/></linearGradient><linearGradient id="New_Gradient_Swatch_copy_2" y1="285.05" x2="750" y2="285.05" gradientUnits="userSpaceOnUse"><stop offset="0" stop-color="#a0a6a6"/><stop offset="0.13" stop-color="#aaadb2"/><stop offset="0.42" stop-color="#bab9c6"/><stop offset="0.71" stop-color="#c5c1d3"/><stop offset="0.99" stop-color="#c8c3d7"/></linearGradient><linearGradient id="New_Gradient_Swatch_copy_3" x1="1.97" y1="331.38" x2="751.97" y2="331.38" gradientUnits="userSpaceOnUse"><stop offset="0" stop-color="#8291af"/><stop offset="0.04" stop-color="#8493b2"/><stop offset="0.36" stop-color="#949ec6"/><stop offset="0.68" stop-color="#9da6d3"/><stop offset="0.99" stop-color="#a0a8d7"/></linearGradient><linearGradient id="New_Gradient_Swatch_copy_3-2" x1="1.97" y1="283.67" x2="751.97" y2="283.67" xlink:href="#New_Gradient_Swatch_copy_3"/><linearGradient id="New_Gradient_Swatch_copy_3-3" x1="1.97" y1="310.21" x2="751.96" y2="310.21" xlink:href="#New_Gradient_Swatch_copy_3"/><linearGradient id="New_Gradient_Swatch_copy_3-4" x1="1.97" y1="340.7" x2="751.96" y2="340.7" xlink:href="#New_Gradient_Swatch_copy_3"/><linearGradient id="New_Gradient_Swatch_copy_3-5" x1="1.97" y1="354.03" x2="751.96" y2="354.03" xlink:href="#New_Gradient_Swatch_copy_3"/><linearGradient id="New_Gradient_Swatch_copy_3-8" x1="1.97" y1="374.7" x2="751.97" y2="374.7" xlink:href="#New_Gradient_Swatch_copy_3"/><linearGradient id="New_Gradient_Swatch" x1="375" y1="311.06" x2="375" y2="535.09" gradientUnits="userSpaceOnUse"><stop offset="0" stop-color="#5a788c"/><stop offset="0.99" stop-color="#739173"/></linearGradient></defs><g class="cls-1"><g id="BACKGROUND"><rect class="cls-2" width="750" height="500"/><path class="cls-3" d="M476.31,106.87c-8.9,6.87-15.14,9.62-26.17,10.62-9.32.84-17.42-.56-26.58-1.71-2.9,5.39-9.73,2.87-14.49,4.61-10.54,3.86-23.21,9.32-34.75,7,4-2.7,11.55-2.64,12.78-8a17.25,17.25,0,0,0,1.77,0s-.07,0-.05,0c1.77-4.09,6-1.14,7.95-4.08,2.3-3.48-.56-6.78,5-8.94,3.16-1.22,6.95-.43,10,.88.78-10.43.65-18,11.37-23.33,6.67-3.3,18.36-7.89,22.16.68,1.89,4.28,2.81,9.9,3.34,14.55,0,0,0-.06-.05-.07,3-4.76,8.55-4.72,10.8.74,5-2.78,9.16,1.73,11.63,5.94C473.64,105.05,474.58,107.1,476.31,106.87Z" transform="translate(0)"/><path class="cls-3" d="M480.67,107c-.06-1.74-.73-4.16,1.06-4.89,1.35-.29,3-.15,3.54,1.06,1.63-1.15,4.18-1.61,4.7.82,2.27-2,7.83-.48,10.89-1.79C497.85,108.32,487.36,109,480.67,107Z" transform="translate(0)"/><path class="cls-3" d="M366.33,129.51c-.78-1.48-1.18-3.87-2.81-4.07-2.13-.09-3.2,1.85-4.58,3.1-2.57-2.08-5.33,1.46-5.75,3.74C355.67,133.78,361.4,131.56,366.33,129.51Z" transform="translate(0)"/><path class="cls-4" d="M374.36,127.56a19,19,0,0,1,6.15-1.5,5.35,5.35,0,0,0,2.54-.5c1.23-.56,2.27-1.72,3.64-2,.58-.13,1.22.11,1.8,0,.89-.22,1.68-.92,2.67-1.09.73-.12,1.65.18,2.33-.06s2-1.86,2.71-2.32a10.58,10.58,0,0,1,5.66-1.66c3-.12,4-2,6.93-2.77,1.09-.3,2.62.15,3.57-.23,1.46-.57,2.89-2.69,4.59-3.5,2.95-1.41,5.89-2,9-.88a13,13,0,0,0,2,.88c2.3.31,3.72-1,6,.29,1.56.89,2.27,1.45,4,1.17,1.49-.23,2.86-1,4.33-1.28,2.1-.44,3.95.17,6,.31a27.74,27.74,0,0,0,11.23-1.82c1.58-.63,3.32-1.8,5-2,1.88-.23,3.09.55,5.13,0,1.55-.44,5-1.38,6.51-1.65.74,3.46-5.53,5.73-7.85,6.92-4.88,2.49-10.72,3.86-16,4.84-3.18.58-6.38,1-9.55,1.67-.48.1-2.06.57-2.08.6a14.38,14.38,0,0,1-8.8-.14c-1.85-.56-4.15-1.84-6.15-1.38-1,.23-1.38.85-2.3,1.5-6.47,4.62-15,0-21,4.92-2.65,2.15-5.7,2.61-9.15,3-4.22.55-7.8,1.15-12.1.73C380,129.46,374.9,130,374.36,127.56Z" transform="translate(0)"/><path class="cls-5" d="M450.36,102.39a13,13,0,0,1-1.26-2.12c1.28-2,1.84-3.52,4.75-2.89a4.67,4.67,0,0,1,3.72,2.87C458.63,103.8,453.6,105.92,450.36,102.39Z" transform="translate(0)"/><path class="cls-5" d="M403.49,106.56c-2.51.37-5.86,1.83-5.89,4.93,0,2.17,3.71,4.33,4.66,1.71,1.1.42,2.37-.61,3.23-1a15.13,15.13,0,0,0,1.42-.87c.82-.49,1.63-.23,2.55-.41,2.52-.47,2.22-2.62.18-3.57C407.91,106.52,405.28,105.94,403.49,106.56Z" transform="translate(0)"/><path class="cls-5" d="M421.37,106.54c-.8-.61-2,0-2.84.38a5.63,5.63,0,0,0-1.92,0c-.08.37-.35.62-.4,1-.52.07-1.14.59-.86,1.15.54,1.08,3.33-.25,3.89-.49s2.29-.57,2.5-.9C422.07,107.15,421.82,106.89,421.37,106.54Z" transform="translate(0)"/><path class="cls-5" d="M414.11,94.81c-.24,2.56-.73,4,1.07,5.75.69.68,1.77,1.34,1.58,2.47-.29,1.7-2,1.81-3.15,1.18C411.3,103,410.9,97.64,414.11,94.81Z" transform="translate(0)"/><path class="cls-5" d="M397.36,116.81l-.25.12c-1,.33-1.68.29-2.11,1.09,1.12,1.44,3.77-.54,4.47-1.56C398.85,115.83,398,116.49,397.36,116.81Z" transform="translate(0)"/><path class="cls-5" d="M460.49,102.68c0-1.64,0-2.49,1.49-3.13a3.64,3.64,0,0,1,2.35,0,8.13,8.13,0,0,1,3.87,2.28c.75.89,2.36,2.22,1.82,3.41-.81,1.78-3.65,1.32-4.82.24-.78.32-1.51.93-2.5.73C461.4,105.92,460.24,103.83,460.49,102.68Z" transform="translate(0)"/><path class="cls-5" d="M438,110.56a13.33,13.33,0,0,1-2.05-1.33c-.73-1.47.71-2.13,2-2.18.67,0,1.75.43,2.34.25s.94-.92,1.56-1.34c2-1.34,3.22.34,5.25.22a12.73,12.73,0,0,1,3-.22c1.41.23,2.68.94,4.13.61.54,1.05-.26,2.34-1.13,2.89-2,1.27-4.68.85-6.85.37-1.77-.4-2.63-.41-4,.45A4,4,0,0,1,438,110.56Z" transform="translate(0)"/><path class="cls-5" d="M435.24,101.68c-3.21-.63-3.15.29-5.63,1.88-1.13.72-3.91,1.58-3.13,3.47.5,1.2,2.43,1.55,3.53,1.28,1.62-.4,2.5-1.85,4-2.47.93-.4,1.67,0,2-1.13A4.2,4.2,0,0,0,435.24,101.68Z" transform="translate(0)"/><path class="cls-5" d="M440.86,80.68c-1.63-.25-3.5-1-5.12-1s-3.2.75-4.72,1.15a41.36,41.36,0,0,0-6.47,1.88c-2.68,1.16-5.39,2.34-7.39,4.54-3.37,3.72-1.21,9.77,1.68,13,2,2.22,4.27,3.16,7.06,1.48,1.88-1.13,3-3.38,4.43-5,1.09-1.28,1.42-.8,2.92-1.09,1.86-.36,2.12-2.21,2.3-3.88,2.28,1.66,4.64,0,5.21-2.6,1.65-.41,2.76-2.29,3-3.89C444.07,82.69,442.1,81.48,440.86,80.68Z" transform="translate(0)"/><path class="cls-5" d="M444.61,89.18c-1.64.89-1.81,1-2.37,2.55-.32.86-.54,1.73-.9,2.56-2.55.56-4.79,1.4-4.51,4.51.21,2.38,1.7,4.37,4.34,3.8a3.74,3.74,0,0,0,2.54-1.76c.28-.47.28-1.36.59-1.72.45-.54.82-.33,1.49-.75a6.33,6.33,0,0,0,1.74-2.8,5.89,5.89,0,0,0,.39-3.07C447.5,90.11,445.73,90.2,444.61,89.18Z" transform="translate(0)"/><path class="cls-4" d="M480.53,107.06a29.41,29.41,0,0,0,5.5,1.16,22.35,22.35,0,0,0,4.62-.25c3.57-.37,8-1.79,9.43-5.41a5,5,0,0,1-3.41,1.85c-.65,0-1.31-.42-2-.36-1.12.09-1.59,1-2.18,1.73-.73-.59-1.51.14-2.23.34-1.71.46-3.66-1.89-5-.13a3.51,3.51,0,0,0-3.23-.83C481.34,105.42,479.86,106.33,480.53,107.06Z" transform="translate(0)"/><path class="cls-5" d="M480.61,104.22a2,2,0,0,1,2-2.41,1.63,1.63,0,0,1,1.79,1c.33.83-.1,1.5-1.17,1.38-.52-.06-.65-.4-1.2-.28S481.17,104.8,480.61,104.22Z" transform="translate(0)"/><path class="cls-5" d="M485.78,103.64c.73-1.15,1.75-2.14,3.13-1.28.45.28,1,.94.72,1.53s-1.37.46-2,.31A4.53,4.53,0,0,1,485.78,103.64Z" transform="translate(0)"/><path class="cls-5" d="M392.74,117.81l-.63.12a10.22,10.22,0,0,0-1.83-.11c-.73.39-2.46,1.66-1.46,2.77.74.82,3.4.15,4.15-.28C394.13,119.63,394.45,118.19,392.74,117.81Z" transform="translate(0)"/><path class="cls-5" d="M402.75,97.78a6.11,6.11,0,0,1-2.33,1c-.59,0-1.51-1-2.19-.69-4.13,1.93,3.76,2.66,4.63,2.73l.5-1A3.06,3.06,0,0,0,402.75,97.78Z" transform="translate(0)"/><path class="cls-5" d="M402.86,100.81c.11,0,.1,0,0,0Z" transform="translate(0)"/><path class="cls-5" d="M476.57,97.19a25.28,25.28,0,0,0-3.46,1.62l-.25.25C473.16,102.56,478.82,99.31,476.57,97.19Z" transform="translate(0)"/><path class="cls-5" d="M384.86,112.06a71.76,71.76,0,0,0-12.12,2.3c2.54,1.7,5.21.12,7.75-.07C382.15,114.17,384,115.55,384.86,112.06Z" transform="translate(0)"/><path class="cls-4" d="M366.17,129.49c-1.12.6-2.2,1-3.35,1.5a22.67,22.67,0,0,1-6.15,2.08c-.51.07-3.37.65-3.5-.39-.07-.61,1-1.17,1.47-1.31,1.14-.36,2.38.12,3.52-.14.11-1.27,2.16-.68,2.81-1.24s.86-1,1.52-1.25a5.66,5.66,0,0,1,1.64-.18A1.72,1.72,0,0,1,366.17,129.49Z" transform="translate(0)"/><path class="cls-3" d="M158.35,132.16c7,6.58,17.22,8.88,26.73,7.69a12.73,12.73,0,0,1,4.84-.07,12.59,12.59,0,0,1,4.47,2.79,48.63,48.63,0,0,0,16.7,8.79c2.09.61,4.28,1.12,6,2.46,2.76,2.14,3.77,6,6.62,8s6.47,1.64,9.8,2.26c7.48,1.37,13,7.42,18.85,12.33a77,77,0,0,0,50.47,18.05c-2.52-3.46-7.3-4.08-11.46-5.09a39.68,39.68,0,0,1-20.14-12.18c.5-2.22.88-4.62,0-6.71s-3.57-3.56-5.54-2.41c.5-4.08-.41-12.3-3.67-14.79a12.1,12.1,0,0,0-11.67-1.54c4.92-4.72,9.67-11.12,3.7-18.25-1.18-1.42-5.11-3.33-6-1.69,4.47-8.37-.86-19.8-9.69-23.26s-19.42.19-25.72,7.28c.23-4.57-.84-9.72-4.63-12.28-3.46-2.34-10.69-4.09-14.78-3.27-4.54.9-7,7.6-8.75,15.75-1.53-3.27-3.21-6.72-6.28-8.62s-8.4,2.29-9.78,5.62c0-2.85-3.09-4.73-5.92-5.13-7.15-1-12.36,1-12.52,9.5C149.86,123.89,153.67,127.74,158.35,132.16Z" transform="translate(0)"/><path class="cls-4" d="M130.35,115.72c-3-1.58-6.35-2.41-9.45-3.78s-6.13-3.47-7.44-6.6c2.05-.87,4.3.54,6.07,1.88l5.55,4.18a11.27,11.27,0,0,1,4.58-2.58,1.58,1.58,0,0,1,1.54.14,1.69,1.69,0,0,1,.37.84l.74,3.17c1.81-1.63,4.3-3.36,6.45-2.22,1.51.8,2,2.68,2.33,4.37a6.74,6.74,0,0,1,0,3C139.72,123.17,132.69,116.94,130.35,115.72Z" transform="translate(0)"/><path class="cls-4" d="M152.69,109.06c-.6.93-2.12,3.36-3,4.47-.9,11.52,4.48,21.31,15.28,26.85a24.31,24.31,0,0,0,14.1,2.92c2-.24,7.93-2.8,9.73-1.89,1.64.84.35,3,3.33,4,1.89.61,4-.09,5.78,1,.71.47,1.09,1.84,1.72,2.44a15.81,15.81,0,0,0,6.79,3.25c4,1,9.24,1.74,11.88,5.33-3.65,4.16,7,6.92,9.67,8.34,3.54,1.91,5.5,1.13,9.11,1.56a5.29,5.29,0,0,1,3.59,1.69c.49.53.34,1.69.89,2.4,1.53,2,3.24,2,5.37,3,3.24,1.56,6.13,4.26,8.87,6.58A54.43,54.43,0,0,0,276.42,192c5.33,1.58,11.87,1.51,17.38,2.52,4,.73,7-.19,9,0-5.94,0-17.11-2.51-22.74-4.38a31.16,31.16,0,0,1-11.35-7c-1.38-1.24-2.68-3.1-4.71-2.24-.47-2.89-2.53-6.42-5.27-7.66-1.45-.67-3.4,0-4.71-.56-2.73-1.25-2.72-3.75-3.38-6.16-1.08-3.92-2.95-5.25-5.66-7.69-1.35-1.22-1.49-2.24-3.32-3.17s-4.84-.27-6.25-1.59c-2-1.85.75-5.92,1-8.19.83-6.68-5.2-14-12-11.24-3.87,1.56-9.49,8.11-11.39.21-.56-2.36,0-8.3-4.67-6.89-5.1-7.17-12.05-8.6-17.76-.73-2.95-3.44-5.81-7.41-11-7.25-6.27.19-8.22,4.48-13.57-1.13C162.85,115.52,158.84,107.12,152.69,109.06Z" transform="translate(0)"/><path class="cls-5" d="M235.19,107.72a63.21,63.21,0,0,0-8-.34c-2.12.16-6.13,1.64-7.18,3.68a3.27,3.27,0,0,0,1.21,3.91c2.61,2,5.83.83,8.64.28,3.82-.74,7.92.32,9.33,3.84.78,2,1.53,2.61,3.76,2.66,2.47,0,1,.88,3.06,2.27,3,2,3.9-2.63,3.05-4.67a27.85,27.85,0,0,0-3.92-6,18.07,18.07,0,0,0-2.72-2.74C239.78,108.31,237.3,108.85,235.19,107.72Z" transform="translate(0)"/><path class="cls-5" d="M173.53,108.06c-.91.29-1.92.65-2.85.88-2.6,2.64-.75,5.53,2.65,3.85,1.66,1.68,3.23.38,5,.1,1.4-.22,2.27-.24,1.84-2.1a5.69,5.69,0,0,0-1.36-1.94C177.19,106.72,175.94,107.46,173.53,108.06Z" transform="translate(0)"/><path class="cls-5" d="M252.86,133.22c2.11,2.33,5,4.89,4.67,8.19-.23,2.29-2.22,7.93-5.24,4.39-1-1.15-.56-3-1.1-4.16-.43-1-1.3-1.4-1.34-2.67C249.77,136.91,251.43,135.42,252.86,133.22Z" transform="translate(0)"/><path class="cls-5" d="M257.36,151.56c2.26,1,5,2.38,6.34,4.58,1.14,1.85,1.5,4.42,1.91,6.5.23,1.13,1,5.14-.21,5.79-2,1.08-3-3.23-3.2-4.37-.43-2.32-.49-4.89-2.21-6.67C259.16,156.53,252,152.41,257.36,151.56Z" transform="translate(0)"/><path class="cls-5" d="M196.11,100.18c-3.6,0-5.33.61-7.62,3.44-1.06,1.3-4.62,7.11-1.19,7.3,2.17.12,3.82-2.06,5.33-3.22,2,.85,3.34,1.63,5.67.67,1.58-.65,3-2.11,4.92-1.83s2.75,3.13,4.51,3.14c.59,0,1.08-.41,1.73-.35s1.1.47,1.66.59c1.59-2.42-1.3-4.81-3.13-6a20.85,20.85,0,0,0-6-2.57C200.28,100.84,197.61,99.57,196.11,100.18Z" transform="translate(0)"/><path class="cls-5" d="M238,124.06c1.19,2,2.08,3.57,4.48,3.75,1.13.08,2.71-.65,3.75-.1,1.5.8,1.76,3.68.81,4.88-.39.48-1.51.85-1.78,1.37-.14.27.1.69,0,1-.36.94-.63,1.28-1.68,1.38a6.61,6.61,0,0,1-4.58-1.85c-1.24-1.15-1.6-2.53-3.13-3.45-1.33-.81-2-1.34-1.87-3.08A4.2,4.2,0,0,1,238,124.06Z" transform="translate(0)"/><path class="cls-5" d="M218.69,116.89c1.4,2.38,1,2.54,2.81,3.32,1.68.71,3.22.41,4.87.68,1,.16,1.38,0,1.95.87,2.35,3.31-1.82,6.06-4.78,5a4.1,4.1,0,0,0-2.7-.5c-2.37.31-3.24.79-5.23-1.15-1.52-1.49-2.61-3.61-1.84-5.77A4.21,4.21,0,0,1,218.69,116.89Z" transform="translate(0)"/><path class="cls-5" d="M204.69,111.39c2.52.3,6.65,1,4.47,4.5-1.92,3.11-5.51.78-7.73-.32-1.72-.86-2.8,1.06-4.41.29s-1-2-.24-3A5.77,5.77,0,0,1,204.69,111.39Z" transform="translate(0)"/><path class="cls-5" d="M141.11,117.31c.09-1.74.46-4.21-.25-5.83a3.87,3.87,0,0,0-5.07-2c-.9.32-3.22,1.9-1.89,3,.6.49,1.63.11,2.28-.08a2.21,2.21,0,0,0,2.5,1.81C138.89,115.54,139,117.26,141.11,117.31Z" transform="translate(0)"/><path class="cls-5" d="M268,148.06a16.82,16.82,0,0,1,4.6-2.44c2.17,1.66,3.18,2.59,3.8,5.33,1.08-1.91,3-1.19,3.74.44,3.41-1.16,4.81,3.6,7.55,5,.26,0,.26,0,0,0-4.84,2.36-6.83-.91-11.19-2C273.73,153.74,263.52,155,268,148.06Z" transform="translate(0)"/><path class="cls-5" d="M312,195.39a16.65,16.65,0,0,1,5-1.56c0,.95.65,1.61.75,2.52,1.63-.7,4.52.54,6.41.73a32.65,32.65,0,0,0,9.82-.32C330.87,202.3,317.19,199.12,312,195.39Z" transform="translate(0)"/><path class="cls-5" d="M161.07,84.8c-3.5-2.54-6.3,2.62-4.77,5.64a15.83,15.83,0,0,1-1.7,1,22.93,22.93,0,0,0,5.26,4.65l2,.5a5,5,0,0,1,.43-1.91c-.75-.29-1.11-1.06-1.93-1.34C162.53,91.62,163.74,86.74,161.07,84.8Zm-.72,8.51,0,0S160.35,93.29,160.35,93.31Z" transform="translate(0)"/><path class="cls-3" d="M611.92,131.09c-1.95-8.79-13.53-13-21.65-9.14s-12.27,13.6-11.69,22.58c-4.89-8.46-19.14-8.85-24.49-.68-14.17-16-40.83-18.83-58.07-6.23s-22.62,38.86-11.72,57.22A24.06,24.06,0,0,0,468.62,217,184.88,184.88,0,0,1,405,257.31a504.2,504.2,0,0,0,136.55-32,453.92,453.92,0,0,0,62.55-30.07c15.54-9,40-19.92,46.76-37.94,5.39-14.46-6.33-39.09-23.9-25C624.94,125.86,610.38,124.18,611.92,131.09Z" transform="translate(0)"/><path class="cls-5" d="M506.61,133.06c-10.8,1.36-17.15,9.92-22.85,18.75-4.4,6.8-7.18,16.47-3.9,24.11,1.43,3.34,5.39,6,6.81.92,2.1,1.14,3.87.16,5.45-1.32a7.55,7.55,0,0,0,5.51,2c8.59.29,12.85-4.76,14.22-12.75.54-3.11.8-5.13,4.1-5.85,1.59-.34,3.5.19,5-.7,2.38-1.43,1.27-4.87,2.5-6.71,1.11-1.67,2.6-1.35,4.78-1.53a12.56,12.56,0,0,0,2.76-.2c2.09-.85,1.43-2.76,2.64-4,.66-.67,1.73-.4,2.41-1.29,1.39-1.83-.44-5.29-1.41-6.86-2.7-4.36-6.4-5.53-11.34-6.23S510.36,130.21,506.61,133.06Z" transform="translate(0)"/><path class="cls-5" d="M532,130.72a96.25,96.25,0,0,1,12,5.11c3.31,1.78,13.56,6.79,11,11.7-1.07,2.07-2.35.07-4.05-.4a14,14,0,0,0-2.91-.34c-1.09-.09-.59-.74-1.76-.07-.79.45-1.15,2-2.31,1.82s-2.51-3.36-2.92-4.23c-.67-1.4-.91-3.22-2-4.38s-2.1-1.78-3-3.39C535.42,135.09,534.18,132.3,532,130.72Z" transform="translate(0)"/><path class="cls-5" d="M484,195.72c-5.61,2.34-13.81,7.33-14.32,14.31-.48,6.42,6.79,2.35,8.53-.63,1.61,1.27,3.17-.17,3.48-2,2.88,1.08,7.65-5.57,6.23-8.12A15.91,15.91,0,0,0,484,195.72Z" transform="translate(0)"/><path class="cls-5" d="M466.69,219.72a14,14,0,0,1,4.9.69c3.12,6.18-8.29,10.2-11.53,12.74,3.23,4-12,9.37-14.38,10.82-8.73,5.37-21.82,12.79-40.68,13.34a158.87,158.87,0,0,0,15.44-7c5.72-3.18,11.35-6.7,16.85-10.26C446.61,234,455.47,227.35,466.69,219.72Z" transform="translate(0)"/><path class="cls-5" d="M541,160.05c-4.79,1.33-7.07,1.41-9.54,5.28-.66,1-1.22,2.88-2,3.74-1.35,1.49-1.2.77-2.78,1.72-2.91,1.74-4.08,4.08-6.34,6.15-1.11,1-5.46,2.36-5.33,4.31.15,2.38,4.64,1.78,6,1.45,3.38-.8,6.28-2.78,9.47-3.66,3-.82,10.7-4.54,7.19-8.55C539.88,169,544.73,165.57,541,160.05Z" transform="translate(0)"/><path class="cls-5" d="M516.36,169.39H516a47.76,47.76,0,0,0-3.85,3.54.71.71,0,0,0,.23.4c2.61.73,3.12-1.51,4.92-2.7C517.06,170.35,516.62,169.59,516.36,169.39Z" transform="translate(0)"/><path class="cls-5" d="M538.36,151.39l-.33-.67a23.36,23.36,0,0,0-5.26,2.12c.49,2.11-.55,3.22-1,5.16C535.73,160.11,542,152.27,538.36,151.39Z" transform="translate(0)"/><path class="cls-5" d="M517,194.72c-6.14.05-8.73.38-13.12,4.47a12,12,0,0,0-3.22,4.09c-3.63-1.42-4.51,4.23-4.68,6.74-.22,3.27.3,3.13-2.73,5.37-2.14,1.58-5.79,3.92-2.6,6.15,6.32,4.41,22.13-5.75,23.71-11.79,6.06.5,14.07-6.1,8.64-11.28A19.29,19.29,0,0,0,517,194.72Z" transform="translate(0)"/><path class="cls-5" d="M593.69,122.05c-8.23,2.44-16.69,8.73-13.87,18.34,2.19,7.48,9.2,3,10.94-2.64,3.51,1.72,4-.56,6-3C603.15,138.43,610.52,123.59,593.69,122.05Z" transform="translate(0)"/><path class="cls-5" d="M582.36,160.39c-6.09-.73-7.92.08-11.61,4.63-.87,1.08-1.9,3.52-2.79,4.3s-2.92.78-4,1.3c-2.83,1.41-2.63,3-4.48,5.09-1.28,1.45-3.8,1.52-4.61,4a4.86,4.86,0,0,0,3.43,6.32c4.8,1.32,19.43-5.1,18.42-10.94a11.46,11.46,0,0,0,7.58-3.89C586.23,169.17,589.7,161.24,582.36,160.39Z" transform="translate(0)"/><path class="cls-5" d="M556.69,158.06h.67c-15.13,5.94-2.81,11.93.66,4.45C564.62,164.75,564,153.85,556.69,158.06Z" transform="translate(0)"/><path class="cls-5" d="M613,130.05c4.17-1.83,8.59-4.24,12,0a5.62,5.62,0,0,1,.59,6.31c-1.63,2.93-4.63,2.45-6.9,4.42,2.1,4.86-5.67,7.49-8.55,8.23-4.91,1.27-8.21,5.27-12.78,7-.22-3.89.09-6.65,3.93-8.65,3-1.56,4.11-.36,5-3.51.27-1-.47-2.32-.07-3.5.53-1.55,1.92-1.92,2.78-3.07C610.83,134.92,610,133.7,613,130.05Z" transform="translate(0)"/><path class="cls-5" d="M638,129.72q-2.65.66-5.26,1.49c-.89,2.18-1.37,5.88.58,7.86s4.59,1.19,6.34,3.45c2,2.61,1.62,7.52,6.75,4.24C652.6,142.82,646.59,130.62,638,129.72Z" transform="translate(0)"/><path class="cls-5" d="M629.69,145.05a11.3,11.3,0,0,1,4.3,3.08,8.91,8.91,0,0,1-9.57,7.64c-1,4.94-12.21,8.65-10.92,2.79.72-3.23,5.5-3.32,6.87-5.5.61-1,.08-2.51,1-3.73C622.88,147.14,626.5,146.16,629.69,145.05Z" transform="translate(0)"/><path class="cls-5" d="M604.69,160.39a23.11,23.11,0,0,0-5.38,3.18C601.36,165.52,607,162.94,604.69,160.39Z" transform="translate(0)"/><path class="cls-5" d="M528.69,202.05a28.67,28.67,0,0,1,2.82-4.54c3.3-.47,6.67,1.68,9.52-1.15C546.94,198.49,532.48,207.17,528.69,202.05Z" transform="translate(0)"/><path class="cls-5" d="M500.36,183.39l-2-1c-2.43,0-9.13-.49-8.14,4-4.09,3.21,1.7,6.72,5,6,2.74-.6,2.79-2.33,4.16-4.08C500.44,186.91,503.8,185.08,500.36,183.39Z" transform="translate(0)"/><path class="cls-5" d="M565.69,139.72l-2.33.67c-1.29.57-11.3,6.28-4.83,8.65,2.45.89,3.15-1.9,5-2.32s4.28,2,6.14,1C573.36,145.85,569.67,139,565.69,139.72Z" transform="translate(0)"/><path class="cls-5" d="M594,146.85c-1.51.62-3.44.93-4.74,0a23.08,23.08,0,0,0-3.88,2.88l-.33,1C588.07,151.82,595.48,153.42,594,146.85Z" transform="translate(0)"/><path class="cls-5" d="M545,182.39l-.67-1.67c-2.47,2.09-4.09,4.58-7.26,3.36C530.5,194.59,548.42,184.3,545,182.39Z" transform="translate(0)"/><path class="cls-5" d="M483,217.39l.33-.67c-2,.83-4,1.69-6,2.58-.23,2.12-3,5,.71,5C480.33,224.29,485.53,219.07,483,217.39Z" transform="translate(0)"/><path class="cls-3" d="M460.7,196.14c-.7-1.13-.51-3-2.5-3-3,.77-5.06,1-6.91,3.92-1.59-2.25-4.63.09-5.31,1.94-2.42.07-2.89,1.85-4.37,3.24a11.16,11.16,0,0,1-5.75,2.53c2.38,3.13,7.88,2.39,10.15-.5a5.07,5.07,0,0,0,6-1.66C455.45,204.74,461.14,201.88,460.7,196.14Z" transform="translate(0)"/><path class="cls-5" d="M568.86,117.56a28.62,28.62,0,0,1-2.59-7.85c.59-.14,1.39-.57,2-.75-1.42-3.9-2.32-12.46,4.06-13,6.2-.5,10.12,11.59,4.69,14.05C581.13,113,574.18,121.61,568.86,117.56Z" transform="translate(0)"/><path class="cls-5" d="M630.65,110.16a24.23,24.23,0,0,0-4.79,5.4v.5C628.19,120.11,634,114,630.65,110.16Z" transform="translate(0)"/><path class="cls-5" d="M425.36,229.56c-7.13,4.63-14.24,8.33-22.51,10.38-5.54,1.38-13.28,4.23-19,3.5,3.71-2.31,9.23-2.6,13.49-4.51,2.76-1.24,5.05-6.29,8-4.09,1-2.88,5-8.18,8.36-4.82,1.74-4.4,7.37-4,10.25-1.54.24-.13.62-.62.87-.71.27.1.54.41.92.37C426.23,229.1,425.5,229.13,425.36,229.56Z" transform="translate(0)"/><path class="cls-5" d="M451.36,197.31a7.06,7.06,0,0,1,2.94-3.45,4.8,4.8,0,0,1,3.8-.32c1,.51,1.1,1.84.94,2.76-.24,1.34-1.75,1.77-3,1.41.32,1.36-1.65,1.14-2.31.59C453,199,452.24,199,451.36,197.31Z" transform="translate(0)"/><path class="cls-5" d="M449.69,196.56c-1.15.14-2.23.4-2.65,1.68a1.88,1.88,0,0,0,0,1c-1.63-.82-3.5,1-4.48,2.18a10.57,10.57,0,0,1-3,2.65c-.83.43-2.1.47-2.77,1.09,1.24,2.3,6.44.36,6.95-1.65.88.89,2.49-.82,2.75-1.67C448.86,203.14,452.15,199,449.69,196.56Z" transform="translate(0)"/><path class="cls-3" d="M424,228.56c.65-.35,1.83-1.09,1.91.12.05.66-.78,1.38-1.28,1.75a53.43,53.43,0,0,1-7.4,4.13,73.74,73.74,0,0,1-12.05,5c-2.5.71-5.06,1.33-7.57,2-2.05.54-3.94,1.52-6,1.94a32.1,32.1,0,0,1-5.09.35,4.65,4.65,0,0,1-2.56-.4c2.41-1.16,5.56-1.07,8.14-1.72a37.54,37.54,0,0,0,5.66-1.43c2.78-1.13,5.84-2,8.32-3.7.81-.57,1.34-1.52,2.31-1.93s1.55.37,2.32.15c.54-.15,1.11-.92,1.69-1.15s1.06,0,1.65-.15a12,12,0,0,0,1.86-.8,24.28,24.28,0,0,0,4.4-1.66C421.52,230.34,423.18,229.72,424,228.56Z" transform="translate(0)"/><path class="cls-3" d="M571.36,118.43c-.66-1.1-2.36-4.21-.38-5.42.28-.17,1,.11,1.26-.14.45-.49-.1-2.29,0-3a3.3,3.3,0,0,1,.28-1.19c.07-.14.58-.06.64-.24.59-2-2.45-3.86-.69-6.16.82-1.08,2.11-1.43,2.68-2.76.23-.52.25-1.35.59-1.76a7.42,7.42,0,0,1,1.42,12c1.61.63,1.31,3.8.84,5.07C577.1,117.24,574.19,119.85,571.36,118.43Z" transform="translate(0)"/><path class="cls-5" d="M581.32,53.31c3.41.26,6,1.32,8.69-1a17.11,17.11,0,0,0,3.74-5c1.35,2.27.37,5.33-1.34,7a13,13,0,0,1,2.87.27c1.76,3.32-4,1.72-5.66,1.52C587.63,55.88,582.48,55.91,581.32,53.31Z" transform="translate(0)"/><path class="cls-5" d="M607.4,56.15c2.36.18,4.17.92,6-.69A11.88,11.88,0,0,0,616,52a4.15,4.15,0,0,1-.93,4.85,9.33,9.33,0,0,1,2,.19c1.22,2.3-2.81,1.19-3.92,1.05C611.78,57.93,608.21,58,607.4,56.15Z" transform="translate(0)"/><path class="cls-5" d="M649,35.05c2.06.15,3.62.79,5.23-.6a10.54,10.54,0,0,0,2.25-3,3.62,3.62,0,0,1-.81,4.21,8.19,8.19,0,0,1,1.73.16c1,2-2.44,1-3.4.91C652.76,36.59,649.67,36.61,649,35.05Z" transform="translate(0)"/><path class="cls-5" d="M633.13,71.7c2,.16,3.62.79,5.22-.6a10,10,0,0,0,2.25-3,3.59,3.59,0,0,1-.8,4.2,8.32,8.32,0,0,1,1.73.17c1.05,2-2.44,1-3.41.91C636.93,73.24,633.83,73.26,633.13,71.7Z" transform="translate(0)"/><path class="cls-6" d="M378.46,237.39a15,15,0,0,0,4.11-1c-.11.08-.31.19-.45.28.59-.07.62-.21.62-.77a10.28,10.28,0,0,0,3.73.39c2.7-.14,2.14-3.11.82-1.81a.8.8,0,0,1,.21-.15,1.3,1.3,0,0,0-1.41-1.19c1.2,0,3.52-1.05,3.75-2.41-.29.1-.71,0-1,.11,0-2.33-3.65.48-4.07,1.42-1.08,0-1.24.83-1.78,1.57-1.18-.46-2.16-1.07-3.47-.79.44-1.91-3-2.2-4.16-1.42-2.28,1.54.39,2.87,2.16,2.84-.7.51-.29,2.06.19,2.57C378,237,378.42,237.08,378.46,237.39Z" transform="translate(0)"/><path class="cls-7" d="M327.61,252.06c-2-.8-3.74-.76-4-2.71.18.05.53-.18.65-.26.24.34.58.56.83.88-.39-2.07,2.87-5,3.29-1.93,1.44-1.67,2-.8,3.23-1s3.39-1.61,4.93-1.48c-.28-1-1.17-2.88-2.36-2.43a3.12,3.12,0,0,0-2.84-2.32c.12-1.22.83-2.22,2.14-2-2.52-3.91-9.2.81-12.62.6-2.79-.17-3.3-3-6.72-1.87-2.83.91-3,1.73-5.56.21-1.36-.81-3.32-2-4-3.42,2.4-1.3,5.88,1.47,6.3-2.24,2.89,3.72,7.51-3.56,10.71,1.24,2.15-.88,1.68-3,3.73-3.73,2.83-1,6.25,0,8.66,1.35,1,.55,2.24,1.78,3.39,1.86s2.1-1.27,3.39-1.2c1.93.1,2.05,3.14,3.59,3.5s2.65-1.88,3.8-2.66c.68,2.91,4,.63,6.1.37a4.44,4.44,0,0,0,1.8.38A8.1,8.1,0,0,0,359,232c1.11-.31.8-1.17,1.92-.65,3.27,1.52.81,5.45-1.38,6.49-1.36.64-3.38,0-4.35.91,2.56,2.84,7.68.65,10.3,2.52-.53,2.34-4.76,3.11-6.83,3.56,2.89.78,5.24-.07,8.07-.23a10.91,10.91,0,0,1,3.19.38c1,.83.19,2.09.94,2.85s.7.2,1.71.69c.19.09,2.71,1,3,1.09,1.28.28,2.37.08,3.6.28.52.09.35,1.16,1.18,1.18,1.56,0,3.3-1.29,5-1.42,2.2-.17,7.24.46,6.32,3.56-.35,1.21-2.83,2.53-4,2.62a8.49,8.49,0,0,1-2.95-.9,7,7,0,0,0-4.22.63c-3.8.69-7.15-.07-10.69,1.28a10.38,10.38,0,0,1-5.1.67c-2.06-.1-4,.68-5.92.65-1.41,0-2-.74-3.32-1.29-2.48-1.05-4.35-.18-6.7-.57-1.17-.2-1.62-.84-2.74-1.32-2-.86-3.82-.64-6-.42-3.33.34-4.24-.33-7-1.75A8,8,0,0,0,327.61,252.06Zm24-9.67c-1.09,0-2-.25-2.58.25a1.24,1.24,0,0,0-1.79,1.06c-.63-.18-1.92-.52-2.06.12.25-1.21-2.08,0-.45,1.19,1.36,1,3.06-.2,4.24-.38a1.28,1.28,0,0,0,1.31.14c-1,1.18,0,1.84,1.23,2.11.68.16,2.16.39,2.43-.55.14-.48-.22-.69-.6-.7a2.5,2.5,0,0,0-.38-.62c.7.38,2.52.6,3.11,0s.3-1.85-.66-1.7c.06-.61-.29-1.15-.89-1.06,0-1.46-2.14-.56-2.49.3.05.05.06.05,0,0C351.74,242.28,351.72,242.54,351.57,242.39Z" transform="translate(0)"/><path class="cls-6" d="M276.36,234.06a24.13,24.13,0,0,1,9.07,1.18,4.88,4.88,0,0,0,2.94.45,8.19,8.19,0,0,1,1.49-.46c.73,0,2.41.44,3.32.52,1.08.1,3.16.51,4.14,0,.62-3.58-6.92-3-9.18-3-.17-1.29-.88-2.55-2.24-2.63-.09.69-.62,1.05-.83,1.63-1.81-1-3.24-.71-5.23-.71-2.67,0-2-.12-4-2.28-1.14-1.26-3.07-3-4.77-2.27-1.35.58-3.72,4.27-1.57,5.05-.1.09-.54-.16-.41.22,1.23,1.72,3,.79,4.67,1.31C275,233.47,275.38,234.48,276.36,234.06Z" transform="translate(0)"/><path class="cls-6" d="M227.66,209.52a19.1,19.1,0,0,1,3.7-6.73,12.72,12.72,0,0,0,2.23,2.61c.78-5.15,3.55-1.79,6.35-1.59.88-3.67,5.37-4,8.33-2.68.17,1.7-1.16,6-2,6.72,3.35-.66,2.62,2.2,1.15,4,2.18-.88,4.44-2.71,6.85-2.61a37.62,37.62,0,0,0,2,3.29c.41-.76,1.5-3.28,2.42-3.61s1.39.68,1.71.64c2.11-.29,3,.54,4.26.92,3.54,1,5,1.34,8.93.4,5.09-1.22,7,1.88,11.68,1.7-4.41,4.94-11.58,1.14-16.95,1.58-2.59.21-5.62,1.28-8.25,1.8,1.8,6.31-11.9.54-13.66,1.23,1,1,1.73,2.62,1,4-1.93-.17-5.65-1.08-7.05-2.31s-.68-3.14-1.25-3.73c-1.4-1.47-3.38-1-5.37-.7s-4.71,1-6.11-.3S225.82,210.48,227.66,209.52Z" transform="translate(0)"/></g><g id="OBJECTS"><rect class="cls-8" x="374.5" y="249.31" width="1" height="7"/><rect class="cls-9" x="671.44" y="91.62" width="3" height="28.21" transform="translate(148.42 540.35) rotate(-48.57)"/><rect class="cls-8" x="421.61" y="244.25" width="1" height="7.85" transform="translate(-34.13 70.38) rotate(-9.16)"/><rect class="cls-8" x="490.05" y="220.06" width="2" height="12.49" transform="translate(-41.36 320.57) rotate(-34.78)"/><rect class="cls-8" x="572.26" y="171.15" width="3" height="22.56" transform="translate(17.5 412.76) rotate(-40.13)"/><rect class="cls-8" x="63.62" y="103.97" width="27.45" height="3" transform="translate(-50.44 77.59) rotate(-41.44)"/><rect class="cls-8" x="323.96" y="247.68" width="7.85" height="1" transform="translate(30.41 532.1) rotate(-80.79)"/><rect class="cls-8" x="252.71" y="225.31" width="12.49" height="2" transform="translate(-74.63 309.93) rotate(-55.22)"/><rect class="cls-8" x="164.96" y="180.93" width="22.56" height="3" transform="translate(-76.83 199.61) rotate(-49.87)"/><path class="cls-8" d="M375,257.81c-126.36,0-293.36-94.88-375-200.75v105c115.36,75,278.39,106.75,375,106.75s259.64-31.75,375-106.75v-105C668.36,162.93,501.36,257.81,375,257.81Z" transform="translate(0)"/><path class="cls-9" d="M750,44.06v13C668.36,162.94,501.36,257.81,375,257.81S81.64,162.94,0,57.06v-13C81.64,149.94,248.64,254.81,375,254.81S668.36,149.94,750,44.06Z" transform="translate(0)"/><polygon class="cls-9" points="637.43 165.21 636.68 161.72 641.07 158.65 641.8 162.18 637.43 165.21"/><path class="cls-10" d="M697.73,203c-1.13.51-2.26,1-3.4,1.57a1.06,1.06,0,0,0-.1-.12c-22.34-32.53-51.5-42-52.41-42.26l0,0-.73-3.52c9.84,2.23,37.67,17.66,57.07,32.85C698.14,191.5,697.73,195.46,697.73,203Z" transform="translate(0)"/><path class="cls-11" d="M689.18,206.9l5.14-2.33c-22.71-33.14-52.52-42.39-52.52-42.39l-4.37,3C665.87,179.43,679.27,193.4,689.18,206.9Z" transform="translate(0)"/><path class="cls-11" d="M570.82,247.91c-1.05.29-1.62.43-2.68.7,0,0-7.84-20.3-25.11-31.78l2-1S559.47,222.82,570.82,247.91Z" transform="translate(0)"/><polygon class="cls-9" points="543.03 216.84 545.05 215.87 545.05 214.44 543.03 215.38 543.03 216.84"/><path class="cls-10" d="M573.07,247.32l-2.25.59c-11.17-24.7-25.31-31.82-25.76-32v-1.44a87.34,87.34,0,0,1,28,24.38Z" transform="translate(0)"/><polygon class="cls-10" points="112.57 165.21 113.32 161.72 108.94 158.65 108.2 162.18 112.57 165.21"/><path class="cls-10" d="M52.27,203c1.13.51,2.26,1,3.4,1.57a1.06,1.06,0,0,1,.1-.12c22.34-32.53,51.5-42,52.41-42.26,0,0,0,0,0,0l.73-3.52c-9.84,2.23-37.66,17.65-57.07,32.85C51.86,191.5,52.27,195.46,52.27,203Z" transform="translate(0)"/><path class="cls-11" d="M60.82,206.9l-5.14-2.33c22.71-33.14,52.52-42.39,52.52-42.39l4.37,3C84.13,179.43,70.73,193.4,60.82,206.9Z" transform="translate(0)"/><path class="cls-11" d="M179.18,247.91c1,.29,1.62.43,2.68.7,0,0,7.84-20.31,25.11-31.78l-2-1S190.53,222.82,179.18,247.91Z" transform="translate(0)"/><polygon class="cls-10" points="206.97 216.84 204.95 215.87 204.95 214.44 206.97 215.38 206.97 216.84"/><path class="cls-10" d="M176.93,247.32l2.25.59c11.17-24.7,25.31-31.82,25.76-32v-1.44a87.34,87.34,0,0,0-28,24.38Z" transform="translate(0)"/><path class="cls-11" d="M453.7,269.48l1.55-.18A77.63,77.63,0,0,0,446.58,249l-1.39.32c4.42,6.07,8.51,20.12,8.51,20.12Z" transform="translate(0)"/><path class="cls-11" d="M397.09,273.49a63.11,63.11,0,0,0-2.73-16.34h-.76A72.67,72.67,0,0,1,396,273.53Z" transform="translate(0)"/><path class="cls-11" d="M296.3,269.48l-1.55-.18A77.63,77.63,0,0,1,303.42,249l1.39.32c-4.42,6.07-8.51,20.12-8.51,20.12Z" transform="translate(0)"/><path class="cls-11" d="M352.91,273.49a63.11,63.11,0,0,1,2.73-16.34h.76A72.67,72.67,0,0,0,354,273.53Z" transform="translate(0)"/><path class="cls-12" d="M750,175.21V394.88c-132.37-36.38-282.86-55.21-375-55.21S132.37,358.5,0,394.88V175.21c90.31,55.17,235.51,98.64,375,98.64S659.69,230.38,750,175.21Z" transform="translate(0)"/><path class="cls-13" d="M375,319.72c-155.67,0-295.67,4.8-375,15V343c86.76-12.37,219.33-21.48,375-21.48S663.24,330.67,750,343v-8.33C670.67,324.52,530.67,319.72,375,319.72Z" transform="translate(0)"/><path class="cls-14" d="M375,298c-123.31,0-264.61-13.2-375-30.55v11.06c112,10.86,251.69,21.36,375,21.36s263-10.5,375-21.36V267.46C639.61,284.81,498.31,298,375,298Z" transform="translate(0)"/><path class="cls-9" d="M375,273.85c-139.49,0-284.69-43.47-375-98.64v13.18c126.39,67.67,273.31,87.79,375,87.79s248.61-20.12,375-87.79V175.21C659.69,230.38,514.49,273.85,375,273.85Z" transform="translate(0)"/><path class="cls-9" d="M750,326.3c-133.64-8.41-266.64-8.41-375-8.41h0c-108.36,0-241.36,0-375,8.41v8.41c79.33-10.19,219.33-15,375-15s295.67,4.8,375,15Z" transform="translate(0)"/><path class="cls-9" d="M750,259.06c-136.14,24-270.14,37.11-375,37.11S136.14,283.06,0,259.06v8.41C110.39,284.8,251.69,298,375,298h0c123.31,0,264.61-13.2,375-30.53Z" transform="translate(0)"/><path class="cls-9" d="M503.94,320.91A175.73,175.73,0,0,1,473.63,345l-1.58-.16h0a165.48,165.48,0,0,0,29.58-24Z" transform="translate(0)"/><path class="cls-9" d="M541.48,260A135.84,135.84,0,0,1,529,288.65c-.93.1-1.85.17-2.77.25a121,121,0,0,0,12.51-28.37h0C539.65,260.35,540.57,260.19,541.48,260Z" transform="translate(0)"/><path class="cls-9" d="M651.47,326.26A402.56,402.56,0,0,1,609,365.56c-1.14-.24-2.3-.47-3.44-.68v0a521.92,521.92,0,0,0,41-38.88Z" transform="translate(0)"/><path class="cls-9" d="M726.26,200.44A280.1,280.1,0,0,1,696.06,268c-2.1.33-4.2.66-6.3,1a335.47,335.47,0,0,0,30.14-65.53C722,202.46,724.14,201.45,726.26,200.44Z" transform="translate(0)"/><path class="cls-9" d="M591.66,287.07A126.64,126.64,0,0,1,571,319.26l-4.28-.09c13-12.46,21.81-31.81,21.81-31.81h0Z" transform="translate(0)"/><path class="cls-9" d="M246.06,320.91A175.73,175.73,0,0,0,276.37,345l1.58-.16h0a165.48,165.48,0,0,1-29.58-24Z" transform="translate(0)"/><path class="cls-9" d="M208.52,260A135.84,135.84,0,0,0,221,288.65c.93.1,1.85.17,2.77.25a121,121,0,0,1-12.51-28.37h0C210.35,260.35,209.43,260.19,208.52,260Z" transform="translate(0)"/><path class="cls-9" d="M98.53,326.26A402.33,402.33,0,0,0,141,365.55c1.14-.23,2.3-.46,3.44-.67v0a521.92,521.92,0,0,1-41-38.88Z" transform="translate(0)"/><path class="cls-9" d="M23.74,200.44A280.1,280.1,0,0,0,53.94,268c2.1.33,4.2.66,6.3,1A335.47,335.47,0,0,1,30.1,203.45C28,202.46,25.86,201.45,23.74,200.44Z" transform="translate(0)"/><path class="cls-9" d="M158.34,287.07A126.64,126.64,0,0,0,179,319.26l4.28-.09c-13-12.46-21.81-31.81-21.81-31.81h0Z" transform="translate(0)"/><path class="cls-9" d="M384,298l-.6,19.91H366.63L366,298q4.5,0,9,0T384,298Z" transform="translate(0)"/><rect class="cls-15" x="371.03" y="305.81" width="7.94" height="8.81"/><path class="cls-9" d="M573,322.75c-7.55,18.26-24,32.47-24,32.47l-19.36-3.83c12.52-8.8,20.94-24.76,23.15-29.29C559.59,322.31,566.32,322.51,573,322.75Z" transform="translate(0)"/><path class="cls-16" d="M541.49,345l10,1.67c3.33-2.46,9.21-10.5,9.21-10.5l-11.38-1.47C547.11,339.24,541.49,345,541.49,345Z" transform="translate(0)"/><polygon class="cls-17" points="573.48 359.72 576.36 346.68 589.53 348.22 586.36 361.39 573.48 359.72"/><path class="cls-9" d="M220.38,351.39,201,355.22S184.58,341,177,322.75c6.65-.24,13.38-.44,20.2-.65C199.44,326.63,207.85,342.59,220.38,351.39Z" transform="translate(0)"/><path class="cls-16" d="M208.51,345l-10,1.67c-3.33-2.46-9.21-10.5-9.21-10.5l11.38-1.47C202.89,339.24,208.51,345,208.51,345Z" transform="translate(0)"/><polygon class="cls-17" points="176.52 359.72 173.64 346.68 160.47 348.22 163.64 361.39 176.52 359.72"/><path class="cls-18" d="M750,394.88v14.84c-193.36-68.64-332.36-68-375-68s-181.64-.69-375,68V394.88c132.37-36.38,282.86-55.21,375-55.21S617.63,358.5,750,394.88Z" transform="translate(0)"/><polygon class="cls-9" points="650.01 341.12 653.43 337.46 655.85 337.97 652.93 341.89 650.01 341.12"/><polygon class="cls-8" points="683.28 350.2 685.73 347.4 688.15 347.91 686.2 350.97 683.28 350.2"/><polygon class="cls-9" points="735.59 358.21 739.02 354.55 741.43 355.06 738.51 358.98 735.59 358.21"/><polygon class="cls-8" points="697.49 355.48 700.92 351.82 703.33 352.32 700.41 356.25 697.49 355.48"/><polygon class="cls-9" points="602.68 338.38 606.1 334.71 608.52 335.22 605.6 339.15 602.68 338.38"/><polygon class="cls-8" points="707.15 373.54 709.75 371 712.17 371.51 710.07 374.32 707.15 373.54"/><polygon class="cls-9" points="680.43 370.23 683.04 367.69 685.45 368.19 683.35 371 680.43 370.23"/><polygon class="cls-9" points="579 338.93 581.6 336.39 584.01 336.9 581.91 339.7 579 338.93"/><polygon class="cls-8" points="710.69 364.21 713.29 361.67 715.71 362.17 713.61 364.98 710.69 364.21"/><polygon class="cls-19" points="623.52 337.82 626.12 335.27 628.53 335.78 626.44 338.59 623.52 337.82"/><polygon class="cls-19" points="665.69 364.77 669.11 361.11 671.53 361.61 668.61 365.54 665.69 364.77"/><polygon class="cls-8" points="484.54 286.28 485.85 283.06 487.54 282.79 486.62 286.06 484.54 286.28"/><polygon class="cls-20" points="608.48 350.63 611.91 346.97 614.32 347.47 611.4 351.4 608.48 350.63"/><polygon class="cls-21" points="547.13 303.43 549.31 300.61 551.05 300.81 549.25 303.78 547.13 303.43"/><polygon class="cls-21" points="458.63 329.94 460.43 327.6 461.88 327.76 460.38 330.23 458.63 329.94"/><polygon class="cls-9" points="530.43 305.4 532.1 303.44 533.84 303.63 532.55 305.75 530.43 305.4"/><polygon class="cls-9" points="512 333.75 513.66 331.79 515.4 331.98 514.11 334.11 512 333.75"/><polygon class="cls-19" points="455.25 306.81 457.32 304.37 459.47 304.61 457.87 307.24 455.25 306.81"/><polygon class="cls-20" points="561.82 301.63 563.49 299.67 565.23 299.86 563.94 301.99 561.82 301.63"/><polygon class="cls-20" points="552.06 311.7 554.23 308.88 555.97 309.08 554.17 312.05 552.06 311.7"/><polygon class="cls-19" points="727.51 377.71 730.93 374.04 733.35 374.55 730.43 378.48 727.51 377.71"/><polygon class="cls-20" points="723.33 353.82 726.76 349.82 728.73 350.24 725.71 354.45 723.33 353.82"/><polygon class="cls-9" points="608.15 252.6 609.95 247.93 612.38 247.5 611.14 252.23 608.15 252.6"/><polygon class="cls-8" points="642.4 248.57 643.62 245.06 646.05 244.63 645.39 248.2 642.4 248.57"/><polygon class="cls-8" points="728.6 248.57 729.83 245.06 732.25 244.63 731.6 248.2 728.6 248.57"/><polygon class="cls-9" points="693.91 236.44 695.71 231.76 698.14 231.33 696.91 236.06 693.91 236.44"/><polygon class="cls-21" points="657.55 248.16 659.36 243.48 661.79 243.05 660.55 247.78 657.55 248.16"/><polygon class="cls-21" points="578.59 265.23 580.23 260.96 582.45 260.56 581.32 264.88 578.59 265.23"/><polygon class="cls-9" points="673.27 261.3 674.73 257.97 677.16 257.53 676.26 260.92 673.27 261.3"/><polygon class="cls-9" points="647.25 268.22 648.71 264.89 651.14 264.45 650.25 267.84 647.25 268.22"/><polygon class="cls-9" points="673.06 251.31 674.52 247.98 676.95 247.55 676.05 250.94 673.06 251.31"/><polygon class="cls-19" points="631.54 268.67 633.34 263.99 635.77 263.56 634.53 268.29 631.54 268.67"/><polygon class="cls-9" points="736.58 226.84 738.38 222.16 740.81 221.72 739.57 226.46 736.58 226.84"/><polygon class="cls-20" points="680.89 236.95 682.58 231.96 684.56 231.61 683.34 236.65 680.89 236.95"/><polygon class="cls-21" points="654.95 295.87 657.42 291.51 659.89 291.44 657.97 295.94 654.95 295.87"/><polygon class="cls-8" points="707.56 315.57 709.29 312.27 711.76 312.2 710.58 315.63 707.56 315.57"/><polygon class="cls-8" points="594.33 299.65 596.06 296.36 598.53 296.29 597.35 299.72 594.33 299.65"/><polygon class="cls-9" points="742.16 292.5 744.63 288.14 747.1 288.07 745.18 292.57 742.16 292.5"/><polygon class="cls-9" points="733.12 317.45 735.6 313.09 738.06 313.02 736.14 317.52 733.12 317.45"/><polygon class="cls-20" points="728.23 304.71 730.16 301.63 732.63 301.56 731.25 304.77 728.23 304.71"/><polygon class="cls-9" points="633.02 315.46 634.96 312.38 637.43 312.31 636.04 315.53 633.02 315.46"/><polygon class="cls-20" points="626.33 298.53 628.27 295.45 630.74 295.38 629.35 298.6 626.33 298.53"/><polygon class="cls-20" points="588.51 260.42 590.22 256.18 592.45 255.81 591.25 260.11 588.51 260.42"/><polygon class="cls-9" points="571.05 280.77 572.43 277.76 574.65 277.39 573.79 280.47 571.05 280.77"/><polygon class="cls-20" points="562.96 266.28 564.34 263.26 566.56 262.9 565.7 265.97 562.96 266.28"/><polygon class="cls-20" points="675.72 315.2 678.19 310.84 680.66 310.77 678.74 315.27 675.72 315.2"/><polygon class="cls-9" points="691.85 298.27 694.32 293.91 696.79 293.84 694.87 298.34 691.85 298.27"/><polygon class="cls-20" points="721.12 296.04 723.52 291.35 725.54 291.29 723.59 296.09 721.12 296.04"/><rect class="cls-19" x="400.83" y="305.96" width="1.75" height="3.25"/><rect class="cls-9" x="411.7" y="323.46" width="1.88" height="2.75"/><rect class="cls-9" x="425.86" y="280.93" width="1.5" height="2.5"/><rect class="cls-9" x="453.95" y="286.84" width="2.02" height="2.02"/><polygon class="cls-9" points="99.99 341.12 96.57 337.46 94.15 337.97 97.07 341.89 99.99 341.12"/><polygon class="cls-8" points="66.72 350.2 64.27 347.4 61.85 347.91 63.8 350.97 66.72 350.2"/><polygon class="cls-9" points="14.41 358.21 10.98 354.55 8.57 355.06 11.49 358.98 14.41 358.21"/><polygon class="cls-21" points="52.51 355.48 49.08 351.82 46.67 352.32 49.59 356.25 52.51 355.48"/><polygon class="cls-21" points="147.32 338.38 143.9 334.71 141.48 335.22 144.4 339.15 147.32 338.38"/><polygon class="cls-8" points="42.85 373.54 40.25 371 37.83 371.51 39.93 374.32 42.85 373.54"/><polygon class="cls-9" points="69.56 370.23 66.96 367.69 64.55 368.19 66.64 371 69.56 370.23"/><polygon class="cls-9" points="171 338.93 168.4 336.39 165.99 336.9 168.09 339.7 171 338.93"/><polygon class="cls-20" points="39.31 364.21 36.71 361.67 34.29 362.17 36.39 364.98 39.31 364.21"/><polygon class="cls-20" points="126.48 337.82 123.88 335.27 121.46 335.78 123.56 338.59 126.48 337.82"/><polygon class="cls-19" points="84.31 364.77 80.89 361.11 78.47 361.61 81.39 365.54 84.31 364.77"/><polygon class="cls-19" points="265.46 286.28 264.15 283.06 262.46 282.79 263.38 286.06 265.46 286.28"/><polygon class="cls-20" points="141.51 350.63 138.09 346.97 135.68 347.47 138.6 351.4 141.51 350.63"/><polygon class="cls-21" points="202.86 303.43 200.69 300.61 198.95 300.81 200.75 303.78 202.86 303.43"/><polygon class="cls-21" points="291.37 329.94 289.56 327.6 288.12 327.76 289.61 330.23 291.37 329.94"/><polygon class="cls-9" points="219.56 305.4 217.9 303.44 216.16 303.63 217.45 305.75 219.56 305.4"/><polygon class="cls-9" points="238 333.75 236.34 331.79 234.59 331.98 235.89 334.11 238 333.75"/><polygon class="cls-8" points="294.75 306.81 292.68 304.37 290.53 304.61 292.13 307.24 294.75 306.81"/><polygon class="cls-20" points="188.18 301.63 186.51 299.67 184.77 299.86 186.06 301.99 188.18 301.63"/><polygon class="cls-20" points="197.94 311.7 195.77 308.88 194.03 309.08 195.83 312.05 197.94 311.7"/><polygon class="cls-9" points="22.49 377.71 19.07 374.04 16.65 374.55 19.57 378.48 22.49 377.71"/><polygon class="cls-20" points="26.67 353.82 23.24 349.82 21.27 350.24 24.29 354.45 26.67 353.82"/><polygon class="cls-9" points="141.85 252.6 140.05 247.93 137.62 247.5 138.86 252.23 141.85 252.6"/><polygon class="cls-8" points="107.6 248.57 106.38 245.06 103.95 244.63 104.61 248.2 107.6 248.57"/><polygon class="cls-8" points="21.4 248.57 20.18 245.06 17.74 244.63 18.4 248.2 21.4 248.57"/><polygon class="cls-9" points="56.09 236.44 54.29 231.76 51.85 231.33 53.09 236.06 56.09 236.44"/><polygon class="cls-21" points="92.45 248.16 90.64 243.48 88.21 243.05 89.45 247.78 92.45 248.16"/><polygon class="cls-21" points="171.41 265.23 169.77 260.96 167.55 260.56 168.68 264.88 171.41 265.23"/><polygon class="cls-8" points="76.73 261.3 75.27 257.97 72.84 257.53 73.74 260.92 76.73 261.3"/><polygon class="cls-9" points="102.75 268.22 101.28 264.89 98.86 264.45 99.75 267.84 102.75 268.22"/><polygon class="cls-20" points="76.94 251.31 75.48 247.98 73.05 247.55 73.94 250.94 76.94 251.31"/><polygon class="cls-19" points="118.46 268.67 116.66 263.99 114.23 263.56 115.47 268.29 118.46 268.67"/><polygon class="cls-9" points="13.42 226.84 11.62 222.16 9.19 221.72 10.43 226.46 13.42 226.84"/><polygon class="cls-20" points="69.11 236.95 67.42 231.96 65.44 231.61 66.66 236.65 69.11 236.95"/><polygon class="cls-21" points="95.05 295.87 92.58 291.51 90.11 291.44 92.03 295.94 95.05 295.87"/><polygon class="cls-8" points="42.44 315.57 40.71 312.27 38.24 312.2 39.42 315.63 42.44 315.57"/><polygon class="cls-8" points="155.67 299.65 153.94 296.36 151.47 296.29 152.65 299.72 155.67 299.65"/><polygon class="cls-9" points="7.84 292.5 5.37 288.14 2.9 288.07 4.82 292.57 7.84 292.5"/><polygon class="cls-9" points="16.88 317.45 14.4 313.09 11.94 313.02 13.86 317.52 16.88 317.45"/><polygon class="cls-19" points="21.77 304.71 19.84 301.63 17.37 301.56 18.75 304.77 21.77 304.71"/><polygon class="cls-9" points="116.97 315.46 115.04 312.38 112.57 312.31 113.96 315.53 116.97 315.46"/><polygon class="cls-20" points="123.67 298.53 121.73 295.45 119.26 295.38 120.65 298.6 123.67 298.53"/><polygon class="cls-21" points="161.49 260.42 159.78 256.18 157.55 255.81 158.75 260.11 161.49 260.42"/><polygon class="cls-9" points="178.95 280.77 177.57 277.76 175.35 277.39 176.21 280.47 178.95 280.77"/><polygon class="cls-20" points="187.04 266.28 185.66 263.26 183.44 262.9 184.3 265.97 187.04 266.28"/><polygon class="cls-20" points="74.28 315.2 71.81 310.84 69.34 310.77 71.26 315.27 74.28 315.2"/><polygon class="cls-9" points="58.15 298.27 55.68 293.91 53.21 293.84 55.13 298.34 58.15 298.27"/><polygon class="cls-20" points="28.88 296.04 26.48 291.35 24.46 291.29 26.41 296.09 28.88 296.04"/><rect class="cls-9" x="347.42" y="305.96" width="1.75" height="3.25" transform="translate(696.59 615.17) rotate(-180)"/><rect class="cls-9" x="336.42" y="323.46" width="1.88" height="2.75" transform="translate(674.72 649.67) rotate(-180)"/><rect class="cls-8" x="322.64" y="280.93" width="1.5" height="2.5" transform="translate(646.78 564.36) rotate(-180)"/><rect class="cls-9" x="294.03" y="286.84" width="2.02" height="2.02" transform="translate(590.07 575.69) rotate(-180)"/><polygon class="cls-19" points="738.69 263.39 738.69 275.56 696.03 279.72 697.53 270.06 738.69 263.39"/><polygon class="cls-9" points="701.61 271.56 701.19 275.72 703.78 275.31 703.78 271.56 701.61 271.56"/><path class="cls-22" d="M709.69,272.89l26.5-2.83s1,1.91,0,2.08-26.5,2.17-26.5,2.17Z" transform="translate(0)"/><path class="cls-21" d="M69.24,273.31l.75,9.75s45.12,3.62,59,4.87l-1.13-7.31C104.78,276.73,69.24,273.31,69.24,273.31Z" transform="translate(0)"/><polygon class="cls-23" points="74.89 280.83 73.2 280.54 73.2 276.78 74.89 276.94 74.89 280.83"/><polygon class="cls-23" points="78.42 281.11 76.73 280.82 76.73 277.07 78.42 277.22 78.42 281.11"/><polygon class="cls-23" points="81.7 281.11 80.02 280.82 80.02 277.07 81.7 277.22 81.7 281.11"/><path class="cls-23" d="M96,282.72c9.25,1.59,31.16,3.67,31.16,3.67v-1.34L96,281.11Z" transform="translate(0)"/><ellipse class="cls-9" cx="93.24" cy="279.19" rx="1.13" ry="1.64"/><path class="cls-24" d="M750,423.72V500H0V423.72C135.14,366.56,253.66,343,375,343S614.86,366.56,750,423.72Z" transform="translate(0)"/><g class="cls-25"><path class="cls-26" d="M375,343l-4.92,0L337.5,500h75L379.92,343.07Z" transform="translate(0)"/><path class="cls-26" d="M396,343.29q-3.35-.07-6.71-.12C431.09,394,471,447.52,508.49,500h55.6C511.32,446.37,455,393.62,396,343.29Z" transform="translate(0)"/><path class="cls-26" d="M407.3,343.62c84.18,47,164.14,101.14,237.4,156.38h38.24A2078.5,2078.5,0,0,0,413.39,343.86Z" transform="translate(0)"/><path class="cls-26" d="M750,484.23A1799.76,1799.76,0,0,0,433.3,344.91l-6.26-.37C541.11,386.28,649,440.89,746,500h4Z" transform="translate(0)"/><path class="cls-26" d="M750,459.2V448.27A1613.92,1613.92,0,0,0,457.36,346.81c-3.43-.32-6.87-.61-10.3-.89A1601.31,1601.31,0,0,1,750,459.2Z" transform="translate(0)"/><path class="cls-26" d="M354,343.29q3.35-.07,6.71-.12C318.91,394,279,447.52,241.52,500H185.91C238.69,446.37,295,393.62,354,343.29Z" transform="translate(0)"/><path class="cls-26" d="M342.7,343.62c-84.18,47-164.14,101.14-237.4,156.38H67.06A2078.5,2078.5,0,0,1,336.61,343.86Z" transform="translate(0)"/><path class="cls-26" d="M0,484.23A1799.76,1799.76,0,0,1,316.7,344.91l6.26-.37C208.89,386.28,101,440.89,4,500H0Z" transform="translate(0)"/><path class="cls-26" d="M0,459.2V448.27A1613.92,1613.92,0,0,1,292.64,346.81c3.43-.32,6.87-.61,10.3-.89A1601.31,1601.31,0,0,0,0,459.2Z" transform="translate(0)"/></g><path class="cls-5" d="M375,344.22c-177.08,0-335.81,65.59-375,88.34v4.75c108.16-59.25,271.28-92.69,375-92.69s266.84,33.44,375,92.69v-4.75C710.81,409.81,552.08,344.22,375,344.22Z" transform="translate(0)"/><path class="cls-26" d="M750,409.72v14C614.86,366.56,496.34,343,375,343S135.14,366.56,0,423.72v-14c193.36-68.64,332.36-68,375-68S556.64,341.08,750,409.72Z" transform="translate(0)"/><path class="cls-27" d="M476.05,351.26a.25.25,0,0,0,.25-.25v-11a.25.25,0,0,0-.5,0v11A.25.25,0,0,0,476.05,351.26Z" transform="translate(0)"/><path class="cls-28" d="M476.05,339.88c1.36,0,2.29.81,3.66.57v2.66c-1.37.24-2.3-.57-3.66-.57Z" transform="translate(0)"/><path class="cls-27" d="M478,341.56V343a6.06,6.06,0,0,0-1.9-.41v-1.38A6.35,6.35,0,0,1,478,341.56Z" transform="translate(0)"/><path class="cls-27" d="M479.71,340.45v1.28a3.79,3.79,0,0,1-1.76-.17v-1.27A3.81,3.81,0,0,0,479.71,340.45Z" transform="translate(0)"/><path class="cls-27" d="M274,351.26a.25.25,0,0,1-.25-.25v-11a.25.25,0,0,1,.5,0v11A.25.25,0,0,1,274,351.26Z" transform="translate(0)"/><path class="cls-28" d="M274,339.88c-1.36,0-2.29.81-3.66.57v2.66c1.37.24,2.3-.57,3.66-.57Z" transform="translate(0)"/><path class="cls-27" d="M272.05,341.56V343a6.06,6.06,0,0,1,1.9-.41v-1.38A6.35,6.35,0,0,0,272.05,341.56Z" transform="translate(0)"/><path class="cls-27" d="M270.29,340.45v1.28a3.79,3.79,0,0,0,1.76-.17v-1.27A3.81,3.81,0,0,1,270.29,340.45Z" transform="translate(0)"/><path class="cls-29" d="M321.68,475.63c2.15,0,3.88-.41,3.88-.92s-2.11-.82-3.88-.92c-2.14-.12-3.88.41-3.88.92S319.54,475.63,321.68,475.63Z" transform="translate(0)"/><path class="cls-29" d="M266.9,469c1.3,0,2.35-.35,2.35-.78s-1.28-.68-2.35-.77c-1.29-.1-2.35.35-2.35.77S265.61,469,266.9,469Z" transform="translate(0)"/><path class="cls-29" d="M260.63,447.83c1.3,0,2.35-.35,2.35-.77s-1.28-.69-2.35-.78c-1.29-.1-2.35.35-2.35.78S259.33,447.83,260.63,447.83Z" transform="translate(0)"/><path class="cls-29" d="M256.25,478.49c1.3,0,2.36-.34,2.36-.77s-1.29-.69-2.36-.77c-1.29-.11-2.35.34-2.35.77S255,478.49,256.25,478.49Z" transform="translate(0)"/><path class="cls-29" d="M552,484.93c3.46,0,6.27-.27,6.27-.6s-3.42-.54-6.27-.61c-3.46-.08-6.28.27-6.28.61S548.57,484.93,552,484.93Z" transform="translate(0)"/><path class="cls-29" d="M339.42,464.71c0-.18-.82-.29-1.5-.32s-1.62.16-1.49.32,1,.15,1.49.32C338.67,465.26,339.42,464.88,339.42,464.71Z" transform="translate(0)"/><path class="cls-29" d="M340.92,446.73c0-.17-.81-.28-1.49-.32s-1.63.17-1.5.32,1,.15,1.5.32C340.17,447.29,340.92,446.91,340.92,446.73Z" transform="translate(0)"/><path class="cls-29" d="M324.69,479c0-.18-.82-.29-1.5-.32s-1.63.16-1.49.32,1,.15,1.49.32C323.93,479.54,324.69,479.16,324.69,479Z" transform="translate(0)"/><path class="cls-29" d="M400.37,470.2c-.74.2-1.58.7-2.36.52-.5-.12-1-.38-1.42,0-.36.14-.52.08-.66.31a.48.48,0,0,0,.09.67,3.06,3.06,0,0,0,2.13.65c1-.14,1.81-.86,2.81-.74a5.24,5.24,0,0,0,2.16,0c.81-.26.61-.7.11-1.17C402.37,469.71,401.4,469.92,400.37,470.2Z" transform="translate(0)"/><path class="cls-29" d="M347.35,475.64a6.33,6.33,0,0,1-1.74.21,1.64,1.64,0,0,0-1.05,0c-.26.05-.39,0-.49.13s-.08.19.07.27a3.49,3.49,0,0,0,1.57.27,13.07,13.07,0,0,1,2.07-.3,7,7,0,0,0,1.59,0c.6-.11.46-.29.09-.48A3.28,3.28,0,0,0,347.35,475.64Z" transform="translate(0)"/><path class="cls-29" d="M319.47,468.26h0S319.47,468.27,319.47,468.26Z" transform="translate(0)"/><path class="cls-29" d="M320.36,467.8a2.55,2.55,0,0,0,.94.23c.43,0,.65,0,.86-.42s.12-.51-.27-.55a2.27,2.27,0,0,0-.27-1.45c-.38.11-.54.51-.68.83s-.28.28-.4.48a2,2,0,0,1-.52-.55c-.16.18-.1.48-.11.7-.27.07-.63,0-.84.14a.34.34,0,0,0-.15.39C319.44,467.73,319.86,467.58,320.36,467.8Z" transform="translate(0)"/><path class="cls-29" d="M288.66,478.37c.28-.5,1.12-.3,1-1.05-.07-.46-.78-.74-1.08-1.11l-.06.06c-.44-.2-1.68-.26-1.87.39S288.09,478.3,288.66,478.37Z" transform="translate(0)"/><path class="cls-29" d="M282.7,483.41c-.21-.07-.37-.26-.57-.32a.83.83,0,0,0-.7.22,1,1,0,0,1-.36.27,2.46,2.46,0,0,1-1.13-.2c-.47.3-.26.32.06.5s.49.5.83.62a.91.91,0,0,0,.67,0c.15-.08.22-.24.36-.31a1.2,1.2,0,0,1,.53,0c.28,0,1.18-.06.91-.52C283.17,483.4,282.9,483.47,282.7,483.41Z" transform="translate(0)"/><path class="cls-29" d="M608.18,466c2,0,3.67-.39,3.67-.87s-2-.77-3.67-.86c-2-.12-3.67.38-3.67.86S606.16,466,608.18,466Z" transform="translate(0)"/><path class="cls-29" d="M614.25,462c0-.17-.77-.27-1.41-.3s-1.54.15-1.42.3.92.14,1.42.3C613.54,462.49,614.25,462.14,614.25,462Z" transform="translate(0)"/><path class="cls-29" d="M658.25,445.55c0-.17-.77-.27-1.41-.3s-1.54.16-1.42.3.92.14,1.42.3C657.54,446.08,658.25,445.72,658.25,445.55Z" transform="translate(0)"/><path class="cls-29" d="M611,469.18c0-.16-.77-.27-1.41-.3s-1.54.16-1.42.3.92.15,1.42.3C610.31,469.71,611,469.35,611,469.18Z" transform="translate(0)"/><path class="cls-29" d="M664.32,472.85a6.07,6.07,0,0,1-1.65.21,1.59,1.59,0,0,0-1,0c-.24.05-.36,0-.46.12s-.08.19.07.26a3.37,3.37,0,0,0,1.48.26,11.58,11.58,0,0,1,2-.29,6.84,6.84,0,0,0,1.5,0c.56-.11.43-.28.08-.46A3.19,3.19,0,0,0,664.32,472.85Z" transform="translate(0)"/><path class="cls-29" d="M606.09,459.05h0S606.1,459.06,606.09,459.05Z" transform="translate(0)"/><path class="cls-29" d="M606.93,458.62a2.47,2.47,0,0,0,.89.21c.41,0,.62,0,.81-.4s.12-.48-.25-.52a2.11,2.11,0,0,0-.26-1.37c-.36.11-.51.49-.63.79s-.27.27-.39.45a1.88,1.88,0,0,1-.49-.52,1.09,1.09,0,0,0-.1.67c-.25.07-.59,0-.8.13a.35.35,0,0,0-.14.37C606.07,458.55,606.47,458.41,606.93,458.62Z" transform="translate(0)"/><path class="cls-29" d="M601.4,464.08c.27-.48,1.06-.29,1-1-.06-.44-.73-.7-1-1l-.06.06c-.42-.19-1.59-.25-1.77.36S600.86,464,601.4,464.08Z" transform="translate(0)"/><path class="cls-29" d="M595.77,468.83c-.19-.05-.35-.24-.53-.3a.74.74,0,0,0-.66.22,1,1,0,0,1-.35.24,2.16,2.16,0,0,1-1.06-.18c-.45.28-.25.3.05.47s.47.48.78.59a.94.94,0,0,0,.64,0c.14-.08.21-.23.34-.29a1,1,0,0,1,.5,0c.27,0,1.11-.06.86-.49C596.22,468.83,596,468.89,595.77,468.83Z" transform="translate(0)"/><ellipse class="cls-29" cx="365.35" cy="457.46" rx="1.51" ry="0.85"/><ellipse class="cls-29" cx="371.3" cy="455.22" rx="2.27" ry="0.82"/><path class="cls-29" d="M496,443.68c0-.18-.81-.28-1.49-.32s-1.63.17-1.5.32,1,.15,1.5.32C495.27,444.24,496,443.86,496,443.68Z" transform="translate(0)"/><path class="cls-29" d="M497.53,425.7c0-.17-.82-.28-1.5-.31s-1.63.16-1.5.31,1,.16,1.5.32C496.77,426.26,497.53,425.88,497.53,425.7Z" transform="translate(0)"/><path class="cls-29" d="M504,454.61a6.29,6.29,0,0,1-1.74.21,1.71,1.71,0,0,0-1,0c-.26.06-.38,0-.48.13s-.09.19.06.27a3.52,3.52,0,0,0,1.57.27,14.28,14.28,0,0,1,2.08-.3,7,7,0,0,0,1.59,0c.59-.11.45-.29.08-.49A3.35,3.35,0,0,0,504,454.61Z" transform="translate(0)"/><ellipse class="cls-29" cx="521.96" cy="436.44" rx="1.51" ry="0.85"/><ellipse class="cls-29" cx="527.9" cy="434.19" rx="2.27" ry="0.82"/><ellipse class="cls-29" cx="371.67" cy="458.19" rx="1.32" ry="0.3"/><ellipse class="cls-29" cx="379.1" cy="461.11" rx="2.51" ry="0.74"/><ellipse class="cls-29" cx="409.95" cy="457.46" rx="2.51" ry="0.74"/><ellipse class="cls-29" cx="191.48" cy="465.98" rx="1.51" ry="0.85"/><ellipse class="cls-29" cx="199.12" cy="434.55" rx="1.51" ry="0.85"/><ellipse class="cls-29" cx="171.62" cy="476.29" rx="1.79" ry="1.01"/><ellipse class="cls-29" cx="195.56" cy="483.34" rx="1.51" ry="0.85"/><ellipse class="cls-29" cx="197.42" cy="463.73" rx="2.27" ry="0.82"/><ellipse class="cls-29" cx="216.49" cy="436.86" rx="2.27" ry="0.82"/><ellipse class="cls-29" cx="197.79" cy="466.7" rx="1.32" ry="0.3"/><ellipse class="cls-29" cx="218.62" cy="469.67" rx="1.32" ry="0.3"/><ellipse class="cls-29" cx="243.91" cy="461.41" rx="1.32" ry="0.3"/><ellipse class="cls-29" cx="168.26" cy="424.1" rx="1.57" ry="0.36"/><ellipse class="cls-29" cx="190.78" cy="471.16" rx="1.32" ry="0.3"/><ellipse class="cls-29" cx="217.81" cy="456.7" rx="1.32" ry="0.3"/><ellipse class="cls-29" cx="279.72" cy="437.38" rx="1.32" ry="0.3"/><ellipse class="cls-29" cx="305" cy="429.12" rx="1.32" ry="0.3"/><ellipse class="cls-29" cx="295.81" cy="413.04" rx="1.57" ry="0.36"/><ellipse class="cls-29" cx="176.22" cy="446.89" rx="1.57" ry="0.36"/><ellipse class="cls-29" cx="224.08" cy="477.61" rx="2.51" ry="0.74"/><path class="cls-29" d="M286.85,376.56c.89,0,1.61-.24,1.61-.53s-.88-.48-1.61-.53c-.88-.07-1.61.23-1.61.53S286,376.56,286.85,376.56Z" transform="translate(0)"/><ellipse class="cls-29" cx="261.08" cy="370.51" rx="0.9" ry="0.21"/><ellipse class="cls-29" cx="287.15" cy="362.24" rx="1.34" ry="0.3"/><ellipse class="cls-29" cx="260.69" cy="357.47" rx="1.34" ry="0.3"/><ellipse class="cls-29" cx="264.82" cy="375.95" rx="1.72" ry="0.51"/><ellipse class="cls-29" cx="551.38" cy="382.89" rx="1.33" ry="0.67"/><ellipse class="cls-29" cx="565.69" cy="395.98" rx="1.33" ry="0.67"/><ellipse class="cls-29" cx="556.62" cy="381.11" rx="2" ry="0.65"/><ellipse class="cls-29" cx="522.41" cy="410.47" rx="2.3" ry="0.75"/><ellipse class="cls-29" cx="556.94" cy="383.47" rx="1.16" ry="0.24"/><ellipse class="cls-29" cx="575.7" cy="434.43" rx="1.16" ry="0.24"/><ellipse class="cls-29" cx="550.77" cy="387" rx="1.16" ry="0.24"/><ellipse class="cls-29" cx="407.67" cy="356.99" rx="1.56" ry="0.72"/><ellipse class="cls-29" cx="431.72" cy="361.74" rx="2.36" ry="0.69"/><ellipse class="cls-29" cx="432.11" cy="364.26" rx="1.37" ry="0.26"/><ellipse class="cls-29" cx="424.84" cy="368.04" rx="1.37" ry="0.26"/><ellipse class="cls-29" cx="574.98" cy="424.16" rx="1.16" ry="0.24"/><ellipse class="cls-29" cx="580.5" cy="440.72" rx="2.21" ry="0.59"/><path class="cls-29" d="M718.25,460.78c1.55,0,2.8-.41,2.8-.92s-1.52-.82-2.8-.92c-1.53-.12-2.79.41-2.79.92S716.71,460.78,718.25,460.78Z" transform="translate(0)"/><path class="cls-29" d="M697.92,452.1c1.22,0,2.22-.32,2.22-.73s-1.22-.65-2.22-.73c-1.23-.1-2.23.33-2.23.73S696.69,452.1,697.92,452.1Z" transform="translate(0)"/><path class="cls-29" d="M693.78,481.07c1.23,0,2.22-.33,2.22-.73s-1.21-.66-2.22-.73c-1.22-.1-2.22.32-2.22.73S692.56,481.07,693.78,481.07Z" transform="translate(0)"/><ellipse class="cls-29" cx="605.37" cy="484.29" rx="1.42" ry="0.8"/><ellipse class="cls-29" cx="595.63" cy="466.56" rx="2.15" ry="0.77"/><ellipse class="cls-29" cx="595.98" cy="469.37" rx="1.25" ry="0.28"/><ellipse class="cls-29" cx="658.24" cy="472.73" rx="1.25" ry="0.28"/><ellipse class="cls-29" cx="682.12" cy="464.93" rx="1.25" ry="0.28"/><ellipse class="cls-29" cx="657.47" cy="460.48" rx="1.25" ry="0.28"/><ellipse class="cls-29" cx="663.39" cy="480.23" rx="2.37" ry="0.7"/><ellipse class="cls-29" cx="602.51" cy="430.6" rx="1.42" ry="0.8"/><ellipse class="cls-29" cx="630.22" cy="452.29" rx="1.42" ry="0.8"/><ellipse class="cls-29" cx="608.13" cy="428.48" rx="2.15" ry="0.77"/><ellipse class="cls-29" cx="608.48" cy="431.29" rx="1.25" ry="0.28"/><ellipse class="cls-29" cx="640.51" cy="440.17" rx="1.25" ry="0.28"/><ellipse class="cls-29" cx="601.86" cy="435.5" rx="1.25" ry="0.28"/><ellipse class="cls-29" cx="558.13" cy="381.3" rx="1.25" ry="0.28"/><ellipse class="cls-29" cx="427.99" cy="455.96" rx="1.33" ry="0.67"/><ellipse class="cls-29" cx="442.3" cy="469.04" rx="1.33" ry="0.67"/><ellipse class="cls-29" cx="433.22" cy="454.18" rx="2" ry="0.65"/><ellipse class="cls-29" cx="433.55" cy="456.53" rx="1.16" ry="0.24"/><ellipse class="cls-29" cx="451.89" cy="458.88" rx="1.16" ry="0.24"/><ellipse class="cls-29" cx="427.38" cy="460.06" rx="1.16" ry="0.24"/><ellipse class="cls-29" cx="451.17" cy="448.61" rx="1.16" ry="0.24"/><ellipse class="cls-29" cx="456.69" cy="465.17" rx="2.21" ry="0.59"/><ellipse class="cls-29" cx="434.73" cy="454.37" rx="1.25" ry="0.28"/><ellipse class="cls-29" cx="645.66" cy="447.67" rx="2.37" ry="0.7"/><ellipse class="cls-29" cx="121.2" cy="453.18" rx="3.75" ry="0.82"/><ellipse class="cls-29" cx="133.91" cy="469.45" rx="1.47" ry="0.82"/><ellipse class="cls-29" cx="76.88" cy="477.51" rx="1.68" ry="0.95"/><ellipse class="cls-29" cx="89.32" cy="472.04" rx="2.54" ry="0.92"/><ellipse class="cls-29" cx="49.83" cy="461.84" rx="1.71" ry="0.39"/><ellipse class="cls-29" cx="118.02" cy="463.18" rx="1.29" ry="0.29"/><ellipse class="cls-29" cx="50.88" cy="445.11" rx="1.71" ry="0.39"/><ellipse class="cls-29" cx="130.14" cy="445.38" rx="1.29" ry="0.29"/><ellipse class="cls-29" cx="42.8" cy="472.08" rx="3.24" ry="0.95"/><ellipse class="cls-29" cx="511.6" cy="473.25" rx="1.42" ry="0.8"/><ellipse class="cls-29" cx="517.21" cy="471.13" rx="2.15" ry="0.77"/><ellipse class="cls-29" cx="517.56" cy="473.93" rx="1.25" ry="0.28"/><ellipse class="cls-29" cx="524.58" cy="476.69" rx="2.37" ry="0.7"/><path class="cls-29" d="M750.5,162.06v-105c-73.67,95.53-216.83,182.1-336.93,198.1L394.86,254h0c-6.54.52-13,.8-19.36.8C249.14,254.81,82.14,149.94.5,44.06v118a529.53,529.53,0,0,0,61.85,34.28c-2.09,2.57-4.16,5.3-6.17,8.23A530.81,530.81,0,0,1,.5,175.21V500H84.57C147.36,386.06,276,351.1,303.44,345.91h0l.76-3.38c6.91-11,24.41-20.69,24.41-20.69v-3.95a303.47,303.47,0,0,1,68.75-18.12V296a108.85,108.85,0,0,1,37-14.53c72.63,0,202-13.44,316.14-63.73V175.21a529.82,529.82,0,0,1-55.68,29.36c-2-2.93-4.07-5.66-6.17-8.23A529.53,529.53,0,0,0,750.5,162.06ZM55.7,204.58q2.44,1.13,4.92,2.23Q58.15,205.7,55.7,204.58Zm5.12,2.32c2-2.67,4.06-5.36,6.38-8.06,37.25,17.22,76.73,31,115.71,41.63-1.26,2.29-2.51,4.76-3.73,7.44A760.91,760.91,0,0,1,60.82,206.9Zm120.46,41.56.15,0ZM375,273.85c-65.19,0-131.63-9.49-193.14-25.24a69,69,0,0,1,3.63-7.44c70.45,19,139,27.64,189.51,27.64s119.06-8.68,189.51-27.64a69,69,0,0,1,3.63,7.44C506.63,264.36,440.19,273.85,375,273.85ZM568.57,248.5l.15,0Zm120.81-41.69q2.48-1.11,4.92-2.23Q691.86,205.71,689.38,206.81Zm-.2.09a760.91,760.91,0,0,1-118.36,41c-1.22-2.68-2.47-5.15-3.73-7.44,39-10.62,78.46-24.41,115.71-41.63C685.12,201.54,687.22,204.23,689.18,206.9ZM129.39,473.57l-.36,3-24.4-8.3c.69-.94,1.39-1.86,2.11-2.78ZM283.68,356.33,283,357l-5.51-4.57,1.07-.32Zm-64.06,34.26-.49,1.77-21.08-5.29c1.23-.72,2.46-1.42,3.68-2.11Zm141.76-79.33-.91.43-3.31-3.58,1-.27ZM163.44,419.38a38.66,38.66,0,0,1-2.79,3.46l-.33,0c-4,3.68-7.42,3.91-9.34,2.46-.95-.71-1.39-2.37-1.27-4.46q5-4.22,10.09-8.16l.45.32C163.05,415.15,164.48,418,163.44,419.38Zm82.75-53.17c-.47.62-1,1.27-1.29,1.61h-.15c-1.73,1.6-3.09,1.52-4,.85a2.93,2.93,0,0,1-.69-2.58q2.68-1.14,5.31-2.21C246.22,364.75,246.58,365.7,246.19,366.21Z" transform="translate(0)"/><path class="cls-11" d="M702,101.13c8.11-6.11,9.06-11.7,7-14.51-1.9-2.52-9.65-2-15.86,2.68Z" transform="translate(0)"/><path class="cls-10" d="M702,101.13a44.66,44.66,0,0,0,4-3.24c.37-1.66-1.16-4.81-2.79-7a13.91,13.91,0,0,0-5.69-4.44,27.29,27.29,0,0,0-4.47,2.82Z" transform="translate(0)"/><ellipse class="cls-8" cx="697.56" cy="95.22" rx="3.66" ry="7.41" transform="translate(83.16 438.97) rotate(-37)"/><ellipse class="cls-9" cx="697.56" cy="95.22" rx="2.66" ry="6.41" transform="translate(83.16 438.97) rotate(-37)"/><path class="cls-11" d="M606.86,175.46c5.7-4.3,5.85-7.62,4.36-9.59-1.34-1.77-6.25-2-10.62,1.27Z" transform="translate(0)"/><path class="cls-10" d="M606.86,175.46a33.24,33.24,0,0,0,2.84-2.29c.26-1.16-.82-3.37-2-4.89a9.72,9.72,0,0,0-4-3.12,18.27,18.27,0,0,0-3.14,2Z" transform="translate(0)"/><ellipse class="cls-8" cx="603.73" cy="171.3" rx="2.57" ry="5.21" transform="translate(18.48 397.83) rotate(-37)"/><ellipse class="cls-9" cx="603.73" cy="171.3" rx="1.87" ry="4.5" transform="translate(18.48 397.83) rotate(-37)"/><path class="cls-11" d="M529.32,218.28c4.14-3.12,4.24-5.53,3.16-7s-4.54-1.47-7.71.92Z" transform="translate(0)"/><path class="cls-10" d="M529.32,218.28a23.11,23.11,0,0,0,2.06-1.66c.19-.84-.59-2.45-1.42-3.55a7.12,7.12,0,0,0-2.91-2.27,14,14,0,0,0-2.28,1.44Z" transform="translate(0)"/><ellipse class="cls-8" cx="527.04" cy="215.26" rx="1.87" ry="3.78" transform="translate(-23.42 360.53) rotate(-37)"/><ellipse class="cls-9" cx="527.04" cy="215.26" rx="1.36" ry="3.27" transform="translate(-23.42 360.53) rotate(-37)"/><path class="cls-8" d="M220.68,218.28c-4.14-3.12-4.24-5.53-3.16-7s4.54-1.47,7.71.92Z" transform="translate(0)"/><path class="cls-10" d="M220.68,218.28a23.11,23.11,0,0,1-2.06-1.66c-.19-.84.59-2.45,1.42-3.55A7.12,7.12,0,0,1,223,210.8a14,14,0,0,1,2.28,1.44Z" transform="translate(0)"/><ellipse class="cls-11" cx="222.96" cy="215.26" rx="3.78" ry="1.87" transform="translate(-83.14 263.77) rotate(-53)"/><ellipse class="cls-9" cx="222.96" cy="215.26" rx="3.27" ry="1.36" transform="translate(-83.14 263.77) rotate(-53)"/><path class="cls-11" d="M466.94,241.57c2.87-2.15,2.75-4.07,1.82-5.3s-3.54-1.55-5.73.11Z" transform="translate(0)"/><path class="cls-10" d="M466.5,241.91c.81-.61,1.65-1.25,2.09-1.67.25-.79-.38-2.2-1.1-3.15a5.29,5.29,0,0,0-2.62-1.86,16.15,16.15,0,0,0-2.29,1.48Z" transform="translate(0)"/><ellipse class="cls-8" cx="464.54" cy="239.31" rx="1.89" ry="3.25" transform="translate(-50.48 327.75) rotate(-37)"/><ellipse class="cls-9" cx="464.54" cy="239.31" rx="1.37" ry="2.81" transform="translate(-50.48 327.75) rotate(-37)"/><path class="cls-8" d="M48,101.13c-8.11-6.11-9.06-11.7-7-14.51,1.9-2.52,9.65-2,15.86,2.68Z" transform="translate(0)"/><path class="cls-10" d="M48,101.13a44.66,44.66,0,0,1-4-3.24c-.37-1.66,1.16-4.81,2.79-7a13.91,13.91,0,0,1,5.69-4.44A27.29,27.29,0,0,1,56.9,89.3Z" transform="translate(0)"/><ellipse class="cls-11" cx="52.44" cy="95.22" rx="7.41" ry="3.66" transform="translate(-55.16 79.8) rotate(-53)"/><ellipse class="cls-9" cx="52.44" cy="95.22" rx="6.41" ry="2.66" transform="translate(-55.16 79.8) rotate(-53)"/><path class="cls-8" d="M143.14,175.46c-5.7-4.3-5.85-7.62-4.36-9.59,1.34-1.77,6.25-2,10.62,1.27Z" transform="translate(0)"/><path class="cls-10" d="M143.14,175.46a33.24,33.24,0,0,1-2.84-2.29c-.26-1.16.82-3.37,2-4.89a9.72,9.72,0,0,1,4-3.12,18.27,18.27,0,0,1,3.14,2Z" transform="translate(0)"/><ellipse class="cls-11" cx="146.27" cy="171.3" rx="5.21" ry="2.57" transform="translate(-78.56 185.02) rotate(-53)"/><ellipse class="cls-9" cx="146.27" cy="171.3" rx="4.5" ry="1.87" transform="translate(-78.56 185.02) rotate(-53)"/><path class="cls-8" d="M283.06,241.57c-2.87-2.15-2.75-4.07-1.82-5.3s3.54-1.55,5.73.11Z" transform="translate(0)"/><path class="cls-10" d="M283.5,241.91c-.81-.61-1.65-1.25-2.09-1.67-.25-.79.38-2.2,1.1-3.15a5.29,5.29,0,0,1,2.62-1.86,16.15,16.15,0,0,1,2.29,1.48Z" transform="translate(0)"/><ellipse class="cls-11" cx="285.46" cy="239.31" rx="3.25" ry="1.89" transform="translate(-77.46 323.27) rotate(-53)"/><ellipse class="cls-9" cx="285.46" cy="239.31" rx="2.81" ry="1.37" transform="translate(-77.46 323.27) rotate(-53)"/><path class="cls-11" d="M375,256.57a1.91,1.91,0,1,1,1.91-1.91A1.91,1.91,0,0,1,375,256.57Z" transform="translate(0)"/><circle class="cls-9" cx="375" cy="254.66" r="1.49"/><path class="cls-10" d="M375,252.76a1.89,1.89,0,0,1,1.76,1.19,1.77,1.77,0,0,0-3.52,0A1.89,1.89,0,0,1,375,252.76Z" transform="translate(0)"/></g></g></svg>